<?xml version="1.0" encoding="utf-8"?>
<!-- Generator: Adobe Illustrator 24.0.3, SVG Export Plug-In . SVG Version: 6.00 Build 0)  -->
<svg version="1.1" xmlns="http://www.w3.org/2000/svg" xmlns:xlink="http://www.w3.org/1999/xlink" x="0px" y="0px"
	 viewBox="0 0 129.5 46.5" style="enable-background:new 0 0 129.5 46.5;" xml:space="preserve">
<style type="text/css">
	.st0{display:none;}
	.st1{fill:#2D1600;}
	.st2{fill:#EAD681;}
	.st3{fill:#F4D37F;}
	.st4{fill:#332502;}
	.st5{fill:#FFFFFF;}
</style>
<g id="bg">
</g>
<g id="sample" class="st0">
	
		<image style="display:inline;overflow:visible;opacity:0.4;" width="480" height="480" xlink:href="7D333F6A47F25F0.jpg"  transform="matrix(1 0 0 1 -179.349 -191.0065)">
	</image>
</g>
<g id="ratio">
</g>
<g id="cup">
</g>
<g id="cat">
	<g>
		<g>
			<g>
				<g>
					<g>
						<path class="st1" d="M121,33.3c0.3,0.4,0.5,0.9,0.6,1.4c0.1,0.8,0.1,1.4-0.2,1.9c-0.4,0.7-1,1.3-1.8,1.6
							c-0.8,0.3-1.8,0.3-3,0.1c-1.7-0.3-3.2-1.1-4.4-2.4c-0.2,0.2-0.4,0.3-0.6,0.5c-0.9,0.5-1.9,0.7-3.1,0.5c-1.1-0.2-2-0.7-2.7-1.5
							c-0.7-0.8-1.1-1.8-1.2-3.1c-0.1-0.5-0.1-1.3,0-2.5c-0.1,0.2-0.1,0.4-0.2,0.7c-0.3,0.9-0.4,1.8-0.6,2.8c-0.1,1-0.3,1.7-0.6,2
							c-0.4,0.4-0.9,0.6-1.7,0.5c-0.9-0.1-1.6-0.7-2.2-1.6c-0.4-0.8-0.7-1.6-0.8-2.6c-0.1-0.7-0.1-1.6-0.1-2.9
							c-0.1,0.3-0.2,0.6-0.3,0.9c-0.2,0.9-0.4,1.9-0.5,2.8c-0.1,1-0.3,1.7-0.6,2.1c-0.4,0.5-0.9,0.7-1.7,0.6c-0.5-0.1-1.4-0.3-2-1.4
							c-0.9,0.7-1.9,1-2.8,0.9c-1.4-0.1-2.5-0.8-3.2-2c-0.6-1.1-1-2.4-1.1-4c-0.1-0.9,0-2,0.1-3.3c0.1-1.3,0.3-2.6,0.5-3.7
							c0.1-0.8,0.4-1.3,0.7-1.6c0.3-0.3,0.7-0.4,1.2-0.4c-0.5-0.2-0.9-0.4-1.2-0.8c-0.6-0.6-0.9-1.4-0.9-2.3
							c-0.1-0.8,0.2-1.5,0.6-2.1c-0.7-0.1-1.3-0.2-1.7-0.3C84.8,14,84,13.9,83,13.8c-0.4,3.1-0.7,6.2-1,9.3
							c-0.1,1.2-0.2,2.7-0.3,4.3c-0.1,1.6-0.2,3-0.2,3.9c0,0.8-0.3,1.5-0.9,1.9c-0.5,0.4-1.1,0.5-1.8,0.5c-0.8,0-1.4-0.3-1.9-0.8
							c-0.5-0.5-0.8-1.2-0.8-1.9c0-0.5,0-1.3,0.1-2.4c0.1-1,0.2-2,0.3-3.1c0-0.1,0-0.1,0-0.2c0.1-1.1,0.2-2.1,0.3-2.9
							c0.1-1.4,0.3-2.9,0.4-4.2c0.2-1.4,0.3-2.7,0.5-3.9c0-0.3,0.1-0.6,0.1-0.9c-1,0-1.8,0.1-2.4,0.2c-0.9,0.2-1.3,0.5-1.4,0.7
							c-0.1,0.1-0.1,0.2-0.1,0.2c-0.3,0.6,0,1.5,0.4,2.5c0,0.1,0,0.1,0.1,0.2c0.2,0.6,0.4,1.2,0.6,1.9c0.1,0.4,0.2,0.8,0.4,1.2
							c0.7,2.3,1.2,3.6,1.1,5.3c-0.2,2.7-1.8,4.4-2.6,5.2c-0.8,0.8-1.7,1.5-2.7,2c-0.7,0.3-2.4,1.2-4.7,1c-2.1-0.2-3.8-0.9-4.9-2.3
							c0,0,0,0,0,0c-0.3,0.3-0.7,0.5-1,0.7c-1.3,0.8-2.6,1.2-4,1.3c-2,0.1-3.5-0.5-4.6-1.7c-0.6-0.7-1.1-1.6-1.3-2.6
							c-0.1,0-0.2,0-0.3,0c0,0-0.1,0-0.3,0c0.1,0.7,0.1,1.4,0.1,2.2c0.1,1.3,0.1,2.6,0,3.9c-0.1,2.2-0.5,3.9-1.3,5.2
							c-0.9,1.4-1.9,2.1-3.2,2.2c-1.1,0.1-2.6-0.5-3.3-3.3c-0.1-0.5-0.2-1-0.2-1.6c-0.2,1.3-0.6,2.4-1.2,3.2c-0.9,1.4-2,2.2-3.3,2.3
							c-1.1,0.1-2.6-0.4-3.2-3.2c-0.4-1.9-0.4-4.8,0-8.7c0-0.5,0.1-1,0.2-1.5c-0.1,0-0.3,0.1-0.4,0.1c-0.5,1.5-1.3,2.7-2.3,3.7
							c-1.2,1.2-2.5,1.9-3.9,2.1c-1.2,0.2-2.2,0-2.9-0.5c-0.2-0.2-0.4-0.3-0.6-0.5c-1.2,0.7-2.4,1.2-3.7,1.7
							c-3.7,1.3-6.9,1.6-9.1,0.8c-1.5-0.5-2.5-1.4-3.1-2.8c-0.6-1.3-0.7-2.9-0.3-4.9c0.5-2.6,1.4-5.1,2.6-7.4c1.3-2.4,2.8-4.4,4.6-6
							c1.8-1.6,3.7-2.8,5.6-3.3c1.9-0.5,3.3-0.3,4.1,0.7c0.9,0.9,1.2,2.4,1,4.3c-0.1,1.3-0.5,2.4-1,3.2c-0.6,1-1.4,1.7-2.4,1.9
							c-0.6,0.1-1.1,0-1.5-0.2c-0.3-0.2-0.6-0.7-0.5-1.6c0-0.2,0.1-0.5,0.2-1.1c0.1-0.5,0.2-0.9,0.3-1.1c0.1-1.1-0.2-1.4-1.2-1.1
							c-0.8,0.2-1.7,0.7-2.6,1.6c-0.9,0.9-1.7,2-2.4,3.4c-0.7,1.5-1.3,3.1-1.6,5c-0.3,1.8-0.1,3.1,0.7,3.9c0.8,0.8,2.1,1,4,0.6
							c1-0.2,2-0.5,3.1-1c0.6-0.2,1.2-0.6,1.9-0.9c0-0.1,0-0.3,0-0.4c0.2-1.5,0.6-2.9,1.3-4.2c0.7-1.3,1.5-2.4,2.5-3.3
							c1-0.9,2.1-1.4,3.3-1.6c1.5-0.2,2.6,0.2,3.4,1.2c0.6,0.8,1,1.8,1.1,2.9c0.2,0,0.3-0.1,0.5-0.2c0.3-1.5,0.6-3.1,1-4.6
							c0.9-3.8,2.1-7,3.4-9.6c1.4-2.9,3-4.4,4.6-4.6c1-0.1,1.7,0.3,2.2,1.2C46.8,8,47,8.9,47,10.1c0.2-0.5,0.5-1,0.8-1.4
							c1.2-2,2.5-3.1,3.9-3.2c1-0.1,1.8,0.4,2.3,1.5c0.4,0.9,0.7,2.1,0.6,3.7c-0.1,1.7-0.4,3.7-1,5.9c-0.6,2.1-1.5,4.2-2.7,6.1
							c-0.4,0.6-0.7,1.2-1.1,1.7c0.4,0,0.7-0.1,1-0.1c0.1-0.4,0.3-0.9,0.5-1.3c0.6-1.3,1.4-2.4,2.3-3.2c1-0.8,2.1-1.2,3.3-1.3
							c1.2,0,2.1,0.4,2.8,1.2c0.6,0.8,1,1.7,1.1,2.9c0.5-1.3,1.3-2.3,2.2-3.1c1-0.8,2.1-1.2,3.3-1.2c1.1,0,2.1,0.4,2.8,1.3
							c0.7,0.9,1.1,2,1.1,3.4c0,1.6-0.4,2.9-1.4,4c-0.6,0.7-1.4,1.2-2.5,1.7c0.1,0,0.1,0,0.2,0c2.4,0.3,5.2-1.9,5.6-4.3
							c0.2-1.4-0.5-2.8-1.2-4.2c-0.7-1.5-1.5-3-1.5-4.9c0-0.5,0-1.9,0.7-3.3c0.2-0.4,0.5-0.8,0.8-1.2c0.9-1.1,2.4-1.8,4.2-2.2
							c1.8-0.3,4.1-0.4,6.9-0.2c1.7,0.2,3.1,0.4,4.1,0.6c1,0.2,2,0.4,2.8,0.7c0.6,0.2,1.2,0.6,1.6,1c0.4,0.5,0.7,1.1,0.8,1.8
							c0.1,0.7-0.1,1.3-0.3,1.7c0.1,0.1,0.3,0.2,0.5,0.4c0.8,0.8,1,2,1,2.3c0,0.3,0.1,1.1-0.3,1.8c-0.1,0.2-0.3,0.4-0.4,0.6
							c-0.4,0.5-1.1,0.7-1.8,0.6c0.9,0.4,1.3,1.2,1.4,1.9c0,0.5,0,1.6-0.2,3.3c-0.3,2.4-0.3,3.4-0.2,3.8c0,0.3,0.1,0.5,0.1,0.7
							c0.1,0,0.2-0.1,0.4-0.3c0.2-0.2,0.5-0.6,0.8-1c-0.1-2.2,0-4.2,0.4-6.1c0.1-0.7,0.4-1.2,0.9-1.6c0.4-0.3,1-0.4,1.8-0.3
							c0.5,0.1,0.9,0.2,1.1,0.4c0.2,0.2,0.6,0.6,0.7,1.4c0,0.1,0,0.2,0,0.3c0.3-0.4,0.6-0.7,1-0.9c0.7-0.5,1.4-0.6,2.1-0.5
							c0.8,0.1,1.4,0.5,1.9,1.1c0.4,0.5,0.6,1,0.7,1.7c0.1-0.2,0.3-0.4,0.4-0.5c1-1,2-1.3,3.1-1.1c1.5,0.3,2.5,1.5,2.8,3.2
							c0.1,0.8,0.1,2,0,3.8c-0.1,1.8-0.1,2.5-0.1,2.8c0,0,0,0,0,0c0.1,0,0.2-0.1,0.4-0.3c0.1-0.1,0.3-0.3,0.5-0.5
							c-0.1-0.3-0.1-0.5-0.2-0.8c-0.2-1.4-0.1-2.6,0.3-3.7c0.4-1.1,1-1.9,1.8-2.4c0.9-0.5,1.9-0.6,3.1-0.3c1.1,0.3,2.1,0.9,3,1.9
							c0.8,1,1.4,2.1,1.6,3.3c0.2,1,0.1,1.9-0.3,2.6c0.1,0,0.3,0,0.4,0C120.2,32.4,120.6,32.8,121,33.3C121,33.3,121,33.3,121,33.3z
							 M121.4,34.7c-0.1-0.4-0.2-0.8-0.4-1.1c-0.3-0.4-0.6-0.6-1-0.7c-0.3-0.1-0.6-0.1-0.9,0.3c-0.4,0.6-0.8,1-1.1,1.2
							c-0.3,0.2-0.8,0.2-1.3,0.1c-0.5-0.1-1-0.3-1.3-0.7c1.6-0.2,2.7-0.5,3.3-1.2c0.7-0.7,1-1.7,0.7-3c-0.2-1.1-0.7-2.1-1.4-3
							c-0.7-0.8-1.6-1.4-2.7-1.7c-1.1-0.3-2.1-0.2-2.9,0.2c-0.8,0.4-1.3,1.2-1.7,2.2c-0.3,1-0.4,2.2-0.2,3.4c0,0.3,0.1,0.6,0.2,1
							c-0.2,0.3-0.4,0.5-0.6,0.6c-0.4,0.4-0.7,0.4-0.8,0.4c-0.1,0-0.3,0-0.4-0.6c0-0.3-0.1-1.1,0.1-2.9c0.1-1.8,0.1-3,0-3.7
							c-0.2-1.4-1-2.4-2.3-2.6c-1-0.2-1.9,0.1-2.8,1c-0.4,0.4-0.8,0.9-1.1,1.6c0-0.5,0-0.9,0-1.2c-0.1-0.7-0.3-1.3-0.6-1.7
							c-0.4-0.4-0.9-0.7-1.6-0.9c-0.6-0.1-1.3,0-1.9,0.5c-0.6,0.4-1.2,1.1-1.7,2c-0.1,0.1-0.1,0.2-0.2,0.3c0-0.1,0-0.2,0-0.2
							c0.2-1.4,0.2-1.8,0.2-2c-0.1-0.5-0.3-0.8-0.5-1c-0.2-0.2-0.5-0.3-0.9-0.3c-0.7-0.1-1.2,0-1.6,0.2c-0.4,0.3-0.6,0.7-0.8,1.3
							c-0.4,1.9-0.5,3.9-0.4,6.1c-0.4,0.5-0.7,0.9-1,1.1c-0.4,0.5-0.7,0.5-0.8,0.5c-0.2,0-0.2-0.1-0.3-0.2c-0.1-0.2-0.2-0.5-0.2-1.1
							c-0.1-0.7,0-2,0.3-3.9c0.2-1.7,0.2-2.7,0.2-3.2c0-0.4-0.3-1.5-1.8-1.6c-0.6-0.1-1.1,0-1.4,0.3c-0.3,0.3-0.5,0.7-0.6,1.4
							c-0.2,1.1-0.4,2.3-0.5,3.6c-0.1,1.3-0.1,2.4-0.1,3.3c0.1,1.5,0.4,2.7,1,3.7c0.6,1,1.6,1.6,2.8,1.7c1,0.1,2-0.3,3-1.1
							c0.5,1.2,1.3,1.5,1.9,1.6c0.6,0.1,1.1-0.1,1.4-0.5c0.3-0.3,0.4-0.9,0.5-1.9c0.1-0.9,0.3-1.9,0.5-2.8c0.2-0.9,0.5-1.7,0.8-2.3
							c0.1-0.3,0.2-0.4,0.3-0.5c0,0.3,0,0.9,0,2c0,1.3,0,2.3,0.1,3c0.1,0.9,0.3,1.7,0.7,2.4c0.4,0.8,1,1.2,1.7,1.3
							c0.7,0.1,1.1,0,1.4-0.4c0.2-0.3,0.4-0.9,0.5-1.8c0.1-1,0.3-2,0.6-2.9c0.3-0.9,0.5-1.6,0.8-2.1c0.1-0.2,0.2-0.4,0.3-0.4
							c0,0.4,0,1.1-0.1,1.9c-0.1,1.3-0.1,2.2,0,2.7c0.1,1.1,0.5,2,1.1,2.7c0.6,0.7,1.4,1.1,2.4,1.3c1.1,0.2,2.1,0,2.9-0.5
							c0.3-0.2,0.6-0.4,0.9-0.7c0,0.1,0.1,0.1,0.1,0.2c1.1,1.3,2.5,2.1,4.2,2.4c1.1,0.2,2,0.2,2.8-0.1c0.7-0.3,1.3-0.8,1.6-1.4
							C121.5,35.9,121.5,35.4,121.4,34.7z M117.7,33.9c0.1-0.1,0.2-0.1,0.3-0.2c-0.3,0.1-0.7,0.3-1.2,0.4
							C117.2,34.1,117.5,34,117.7,33.9z M92.1,18.3c0.3-0.6,0.2-1.3,0.2-1.5c0-0.1-0.2-1.2-0.9-1.9c-0.2-0.2-0.5-0.4-0.5-0.4
							c-0.2-0.1-0.4-0.2-0.6-0.3c0.1-0.1,0.2-0.1,0.3-0.2c0.4-0.3,0.5-0.9,0.4-1.6c0-0.5-0.2-1-0.6-1.4c-0.3-0.4-0.8-0.7-1.3-0.9
							c-0.8-0.3-1.7-0.5-2.7-0.7c-1-0.2-2.4-0.4-4.1-0.6c-2.8-0.3-5-0.2-6.8,0.2c-1.8,0.4-3.2,1.1-4.1,2c-0.3,0.3-0.5,0.7-0.7,1.1
							c-0.6,1.3-0.6,2.6-0.6,3.1c0,3.5,3.1,6.1,2.7,9.2c-0.3,2.7-3.4,5-6,4.7c-0.7-0.1-1.2-0.3-1.6-0.5c1.7-0.5,2.9-1.2,3.6-2.1
							c0.9-1,1.3-2.2,1.3-3.7c0-1.2-0.4-2.3-1-3c-0.6-0.7-1.5-1.1-2.5-1.2c-1.1,0-2.1,0.4-3,1.1c-0.9,0.7-1.6,1.7-2.1,2.9
							c-0.5,1.2-0.8,2.5-0.8,3.8c0,0.3,0,0.6,0,0.9c-0.4,0.4-0.8,0.7-1.3,1c-0.9,0.6-1.7,0.9-2.3,0.9c-0.7,0-1.2-0.1-1.5-0.4
							c1.7-0.6,2.9-1.3,3.7-2.2c0.9-1,1.4-2.3,1.4-3.7c0-1.2-0.3-2.2-0.9-3c-0.6-0.7-1.5-1.1-2.5-1c-1.1,0-2.1,0.4-3,1.2
							c-0.9,0.7-1.6,1.7-2.2,2.9c-0.2,0.5-0.4,1-0.5,1.5c-0.1,0-0.2,0-0.3,0c-0.4,0.1-0.9,0.1-1.5,0.2c-0.2,0-0.5,0.1-0.7,0.2
							c0.7-0.8,1.4-1.6,2-2.6c1.1-1.9,2-3.9,2.6-6c0.6-2.1,0.9-4,1-5.7c0-1.4-0.1-2.6-0.6-3.4c-0.4-0.9-1.1-1.3-2-1.3
							c-1.2,0.1-2.4,1.1-3.6,3c-0.6,1-1.2,2.2-1.7,3.5c0.1-0.5,0.1-1.1,0.2-1.6c0.1-1.4-0.1-2.5-0.5-3.2c-0.4-0.8-1.1-1.1-1.9-1
							c-1.5,0.2-2.9,1.6-4.2,4.3c-1.3,2.6-2.4,5.7-3.3,9.5c-0.4,1.6-0.7,3.3-1,4.9c-0.5,0.2-0.9,0.3-1.2,0.4c-0.1-1.3-0.4-2.3-1-3.2
							c-0.7-1-1.8-1.3-3.1-1.1c-1.1,0.2-2.1,0.7-3,1.5c-0.9,0.8-1.7,1.8-2.4,3.1c-0.6,1.2-1,2.6-1.2,4c0,0.3,0,0.5-0.1,0.8
							c-0.8,0.4-1.6,0.8-2.3,1.1c-1.1,0.5-2.1,0.8-3.2,1c-2,0.4-3.4,0.1-4.3-0.7c-0.8-0.8-1.1-2.2-0.8-4.2c0.3-1.9,0.9-3.6,1.6-5.2
							c0.8-1.5,1.6-2.7,2.6-3.7c1-0.9,1.9-1.5,2.8-1.7c1.3-0.3,1.8,0.1,1.6,1.5c0,0.3-0.1,0.7-0.3,1.2c-0.1,0.5-0.2,0.8-0.2,1
							c-0.1,0.7,0.1,1.1,0.3,1.3c0.3,0.2,0.7,0.3,1.2,0.2c0.8-0.2,1.5-0.7,2-1.6c0.5-0.8,0.8-1.8,0.9-3c0.2-1.8-0.1-3.1-0.9-4
							c-0.8-0.9-2.1-1.1-3.9-0.6c-1.9,0.5-3.6,1.6-5.3,3.1c-1.7,1.6-3.2,3.5-4.4,5.8c-1.2,2.3-2.1,4.7-2.6,7.2
							c-0.3,1.9-0.2,3.4,0.3,4.7c0.6,1.2,1.5,2.1,2.9,2.6c1.4,0.5,3.1,0.5,5.1,0.2c1.2-0.2,2.4-0.5,3.7-1c1.3-0.5,2.6-1.1,3.8-1.8
							c0.2,0.3,0.5,0.5,0.7,0.7c0.7,0.5,1.6,0.6,2.7,0.5c1.3-0.2,2.5-0.8,3.6-1.9c1-1,1.8-2.3,2.2-3.8c0.4-0.1,0.8-0.2,1.2-0.3
							c-0.1,0.7-0.2,1.4-0.2,2.1c-0.3,3.8-0.3,6.7,0,8.6c0.4,2,1.3,3,2.8,2.9c1.1-0.1,2.1-0.8,2.9-2c0.7-1.2,1.2-2.8,1.3-4.9
							c0.1-1.5,0.1-3,0.1-4.2c0-1.1,0-2.2-0.1-3.4c0.2,0,0.8-0.1,0.8-0.1c-0.1,0.8-0.2,1.7-0.2,2.5c-0.2,3.8-0.2,6.8,0.2,8.7
							c0.4,2.1,1.4,3.1,2.8,3c1.1-0.1,2.1-0.7,2.8-2c0.7-1.2,1.1-2.8,1.2-4.9c0.1-1.3,0.1-2.5,0-3.8c0-1-0.1-1.9-0.2-2.8
							c0.5,0,0.8,0,0.8,0c0.2,0,0.4,0,0.6-0.1c0.2,1.1,0.6,2.1,1.3,2.8c1,1.1,2.4,1.6,4.3,1.6c1.3,0,2.6-0.4,3.8-1.2
							c0.5-0.3,0.9-0.6,1.3-1c0.1,0.1,0.2,0.2,0.3,0.3c1.6,1.9,3.9,2.1,4.6,2.1c2.1,0.2,3.7-0.6,4.4-0.9c1.3-0.6,2.2-1.4,2.6-1.9
							c0.8-0.8,2.3-2.5,2.5-4.9c0.1-1.5-0.3-2.9-1-5.1c-0.3-1-0.6-2-0.9-3.1c-0.4-1.1-0.8-2.3-0.4-3.1c0.1-0.2,0.2-0.3,0.2-0.3
							c0.3-0.4,0.9-0.6,1.6-0.8c0.7-0.2,1.7-0.2,3-0.2c-0.1,0.5-0.1,1-0.2,1.5c-0.2,1.2-0.3,2.6-0.5,3.9c-0.2,1.4-0.3,2.8-0.4,4.2
							c-0.1,0.8-0.2,1.8-0.3,2.9c-0.1,1.1-0.2,2.2-0.3,3.2c-0.1,1.1-0.1,1.8-0.1,2.3c0,0.6,0.2,1.2,0.7,1.6c0.4,0.4,0.9,0.6,1.6,0.6
							c0.6,0,1.1-0.1,1.5-0.4c0.5-0.4,0.7-0.9,0.7-1.6c0-1,0.1-2.3,0.2-4c0.1-1.6,0.2-3.1,0.3-4.3c0.3-3.3,0.6-6.5,1-9.8
							c1.1,0.1,2,0.2,2.7,0.4c0.7,0.1,1.7,0.3,3,0.6c-0.3,0.1-0.5,0.2-0.7,0.4c-0.5,0.5-0.7,1.1-0.7,1.9c0.1,0.8,0.3,1.4,0.8,1.9
							c0.4,0.5,1.1,0.8,1.8,0.9c0.8,0.1,1.4-0.1,1.9-0.5C91.9,18.7,92,18.5,92.1,18.3z M60.3,26.6c0-0.2,0-0.4,0-0.6
							c-0.2,0.3-0.4,0.7-0.7,1c-0.6,0.7-1.5,1.3-2.6,1.8c0.6,0,1.4-0.2,2.3-0.8c0.4-0.2,0.7-0.5,1-0.8C60.3,27,60.2,26.8,60.3,26.6z
							"/>
						<path class="st1" d="M121,33.5c0.2,0.3,0.4,0.7,0.4,1.1c0.1,0.7,0.1,1.3-0.2,1.7c-0.3,0.7-0.9,1.2-1.6,1.4
							c-0.7,0.3-1.7,0.3-2.8,0.1c-1.7-0.3-3.1-1.1-4.2-2.4c-0.1-0.1-0.1-0.1-0.1-0.2c-0.3,0.3-0.6,0.5-0.9,0.7
							c-0.8,0.5-1.8,0.7-2.9,0.5c-1-0.2-1.8-0.6-2.4-1.3c-0.6-0.7-0.9-1.6-1.1-2.7c-0.1-0.5-0.1-1.4,0-2.7c0.1-0.9,0.1-1.5,0.1-1.9
							c-0.1,0.1-0.2,0.2-0.3,0.4c-0.3,0.5-0.6,1.2-0.8,2.1c-0.3,0.9-0.5,1.9-0.6,2.9c-0.1,0.9-0.3,1.5-0.5,1.8
							c-0.3,0.4-0.8,0.5-1.4,0.4c-0.7-0.1-1.3-0.5-1.7-1.3c-0.4-0.7-0.6-1.5-0.7-2.4c-0.1-0.7-0.1-1.7-0.1-3c0-1.1,0-1.6,0-2
							c-0.1,0.1-0.2,0.3-0.3,0.5c-0.3,0.6-0.5,1.3-0.8,2.3c-0.2,1-0.4,1.9-0.5,2.8c-0.1,0.9-0.3,1.5-0.5,1.9
							c-0.3,0.4-0.8,0.5-1.4,0.5c-0.6-0.1-1.4-0.4-1.9-1.6c-1,0.8-2,1.2-3,1.1c-1.2-0.1-2.2-0.7-2.8-1.7c-0.6-1-0.9-2.2-1-3.7
							c-0.1-0.9,0-2,0.1-3.3c0.1-1.3,0.3-2.5,0.5-3.6c0.1-0.7,0.3-1.1,0.6-1.4c0.3-0.3,0.7-0.4,1.4-0.3c1.5,0.2,1.7,1.2,1.8,1.6
							c0,0.5,0,1.6-0.2,3.2c-0.2,1.9-0.3,3.3-0.3,3.9c0,0.6,0.2,0.9,0.2,1.1c0.1,0.1,0.1,0.2,0.3,0.2c0.1,0,0.3,0,0.8-0.5
							c0.3-0.3,0.6-0.7,1-1.1c-0.1-2.2,0-4.3,0.4-6.1c0.1-0.6,0.4-1.1,0.8-1.3c0.4-0.2,0.9-0.3,1.6-0.2c0.4,0.1,0.7,0.2,0.9,0.3
							c0.2,0.2,0.4,0.5,0.5,1c0,0.2,0,0.7-0.2,2c0,0.1,0,0.2,0,0.2c0.1-0.1,0.1-0.2,0.2-0.3c0.5-0.9,1.1-1.6,1.7-2
							c0.6-0.4,1.3-0.6,1.9-0.5c0.7,0.1,1.2,0.4,1.6,0.9c0.4,0.4,0.6,1,0.6,1.7c0,0.3,0.1,0.7,0,1.2c0.3-0.7,0.7-1.2,1.1-1.6
							c0.9-0.9,1.9-1.2,2.8-1c1.3,0.3,2.1,1.2,2.3,2.6c0.1,0.7,0.1,1.9,0,3.7c-0.1,1.8-0.1,2.6-0.1,2.9c0.1,0.6,0.2,0.6,0.4,0.6
							c0.1,0,0.4,0,0.8-0.4c0.2-0.2,0.4-0.4,0.6-0.6c-0.1-0.3-0.1-0.7-0.2-1c-0.2-1.3-0.1-2.4,0.2-3.4c0.3-1,0.9-1.8,1.7-2.2
							c0.8-0.5,1.8-0.5,2.9-0.2c1,0.3,1.9,0.8,2.7,1.7c0.8,0.8,1.2,1.8,1.4,3c0.2,1.3,0,2.3-0.7,3c-0.6,0.6-1.7,1-3.3,1.2
							c0.4,0.4,0.8,0.6,1.3,0.7c0.6,0.1,1,0.1,1.3-0.1c0.3-0.2,0.7-0.6,1.1-1.2c0.3-0.4,0.6-0.4,0.9-0.3
							C120.4,32.9,120.7,33.1,121,33.5z M121,34.6c-0.1-0.4-0.2-0.7-0.3-0.9c-0.3-0.5-0.9-0.6-1.1-0.2c-0.4,0.6-0.8,1.1-1.2,1.3
							c-0.4,0.2-0.9,0.3-1.6,0.1c-0.7-0.1-1.2-0.4-1.6-0.9c-0.2-0.2-0.4-0.5-0.6-0.7c0.2,0,0.5,0,0.7-0.1c1.5-0.1,2.6-0.5,3.2-1.1
							c0.6-0.7,0.9-1.6,0.7-2.7c-0.2-1-0.6-1.9-1.2-2.6c-0.6-0.7-1.4-1.2-2.3-1.5c-1-0.3-1.9-0.2-2.6,0.2c-0.7,0.4-1.2,1.1-1.5,2.1
							c-0.3,0.9-0.4,2-0.2,3.2c0,0.3,0.1,0.6,0.2,0.9c0,0.1,0,0.1,0.1,0.2c0,0-0.1,0.1-0.1,0.1c-0.2,0.3-0.4,0.5-0.6,0.7
							c-0.9,0.9-1.8,0.4-1.9-0.7c-0.1-0.5-0.1-1.5,0.1-3c0.1-1.8,0.1-2.9,0-3.6c-0.2-1.2-0.7-1.8-1.8-2.1c-0.8-0.2-1.7,0.2-2.5,1
							c-0.4,0.4-0.7,0.9-1.1,1.5c-0.3,0.6-0.6,1.1-0.9,1.7c0-0.7,0-1.5,0.1-2.2c0-0.5,0-0.9,0-1.1c-0.1-0.6-0.2-1.1-0.5-1.4
							c-0.5-0.7-1.8-1-2.9-0.2c-0.6,0.4-1.1,1-1.6,1.9c-0.1,0.1-0.1,0.2-0.2,0.3c-0.4,0.8-0.8,1.5-1.2,2.3c0.1-1,0.3-2,0.4-3
							c0.1-1,0.2-1.6,0.2-1.9c0-0.3-0.1-0.4-0.2-0.5c-0.1-0.1-0.4-0.2-0.7-0.2c-0.6-0.1-1,0-1.3,0.2c-0.3,0.2-0.5,0.6-0.6,1.1
							c-0.4,1.8-0.5,3.8-0.3,6c0,0.1,0,0.1,0,0.2c0,0-0.1,0.1-0.1,0.1c-0.4,0.5-0.7,0.9-1,1.2c-0.8,0.8-1.4,0.7-1.7,0.1
							c-0.2-0.3-0.3-0.7-0.3-1.3c-0.1-0.7,0-2.1,0.3-4.1c0.2-1.6,0.2-2.7,0.2-3.1c0-0.6-0.5-1-1.3-1.1c-0.5-0.1-0.9,0-1.1,0.2
							c-0.2,0.2-0.4,0.6-0.5,1.1c-0.2,1.1-0.4,2.3-0.5,3.6c-0.1,1.3-0.1,2.3-0.1,3.2c0.1,1.4,0.4,2.6,1,3.4c0.5,0.9,1.3,1.4,2.4,1.5
							c0.9,0.1,1.8-0.3,2.7-1c0.1-0.1,0.3-0.2,0.4-0.4c0.1,0.2,0.2,0.4,0.3,0.7c0.3,0.8,0.8,1.2,1.4,1.2c0.5,0.1,0.9,0,1.1-0.3
							c0.2-0.3,0.4-0.8,0.5-1.7c0.1-1,0.3-1.9,0.6-2.9c0.2-1,0.5-1.8,0.8-2.4c0.1-0.2,0.2-0.4,0.4-0.6c0.2-0.3,0.5-0.6,0.7-0.9
							c0,0.5,0,0.9,0.1,1.4c0,0.4,0,1.1,0,2c0,1.3,0,2.3,0.1,3c0.1,0.8,0.3,1.5,0.6,2.1c0.3,0.6,0.8,0.9,1.3,1
							c0.5,0.1,0.9,0,1.1-0.3c0.2-0.3,0.3-0.8,0.4-1.6c0.1-1.1,0.3-2.1,0.6-3c0.3-0.9,0.6-1.7,0.9-2.2c0.1-0.2,0.2-0.4,0.3-0.5
							c0.2-0.3,0.5-0.6,0.7-0.8c0,0.4,0,0.9,0.1,1.3c0,0.4,0,1.1,0,2c-0.1,1.3-0.1,2.1,0,2.6c0.1,1,0.4,1.8,0.9,2.4
							c0.5,0.6,1.2,1,2,1.1c1,0.2,1.9,0,2.6-0.4c0.3-0.2,0.6-0.4,0.8-0.6c0.1-0.1,0.2-0.2,0.3-0.3c0.1,0.2,0.2,0.3,0.4,0.5
							c0,0.1,0.1,0.1,0.1,0.1c1,1.2,2.3,1.9,3.9,2.2c1,0.2,1.9,0.2,2.6-0.1c0.7-0.3,1.2-0.7,1.5-1.3C121,35.7,121.1,35.2,121,34.6z"
							/>
						<path class="st2" d="M120.7,33.7c0.2,0.2,0.3,0.5,0.3,0.9c0.1,0.6,0.1,1.1-0.1,1.5c-0.3,0.6-0.8,1.1-1.5,1.3
							c-0.7,0.3-1.5,0.3-2.6,0.1c-1.6-0.3-2.9-1-3.9-2.2c0,0-0.1-0.1-0.1-0.1c-0.1-0.2-0.2-0.3-0.4-0.5c-0.1,0.1-0.2,0.2-0.3,0.3
							c-0.3,0.2-0.5,0.5-0.8,0.6c-0.7,0.4-1.6,0.6-2.6,0.4c-0.8-0.1-1.5-0.5-2-1.1c-0.5-0.6-0.8-1.4-0.9-2.4c-0.1-0.5-0.1-1.4,0-2.6
							c0.1-0.9,0.1-1.6,0-2c0-0.4,0-0.9-0.1-1.3c-0.2,0.3-0.5,0.6-0.7,0.8c-0.1,0.1-0.2,0.2-0.3,0.5c-0.3,0.5-0.6,1.3-0.9,2.2
							c-0.3,0.9-0.5,1.9-0.6,3c-0.1,0.8-0.2,1.4-0.4,1.6c-0.2,0.2-0.6,0.3-1.1,0.3c-0.5-0.1-1-0.4-1.3-1c-0.3-0.6-0.5-1.3-0.6-2.1
							c-0.1-0.7-0.1-1.7-0.1-3c0-0.9,0-1.6,0-2c0-0.5,0-0.9-0.1-1.4c-0.2,0.3-0.5,0.6-0.7,0.9c-0.1,0.1-0.2,0.3-0.4,0.6
							c-0.3,0.6-0.6,1.4-0.8,2.4c-0.3,1-0.4,1.9-0.6,2.9c-0.1,0.8-0.3,1.4-0.5,1.7c-0.2,0.3-0.6,0.4-1.1,0.3
							c-0.6-0.1-1.1-0.5-1.4-1.2c-0.1-0.2-0.2-0.4-0.3-0.7c-0.1,0.1-0.3,0.2-0.4,0.4c-0.9,0.8-1.8,1.1-2.7,1
							c-1.1-0.1-1.9-0.6-2.4-1.5c-0.5-0.9-0.9-2.1-1-3.4c-0.1-0.8,0-1.9,0.1-3.2c0.1-1.3,0.3-2.5,0.5-3.6c0.1-0.6,0.3-1,0.5-1.1
							c0.2-0.2,0.6-0.3,1.1-0.2c0.8,0.1,1.2,0.5,1.3,1.1c0,0.5,0,1.5-0.2,3.1c-0.2,2-0.3,3.3-0.3,4.1c0,0.6,0.1,1,0.3,1.3
							c0.3,0.6,0.9,0.8,1.7-0.1c0.3-0.3,0.6-0.7,1-1.2c0,0,0.1-0.1,0.1-0.1c0-0.1,0-0.1,0-0.2c-0.1-2.2,0-4.2,0.3-6
							c0.1-0.5,0.3-0.9,0.6-1.1c0.3-0.2,0.8-0.3,1.3-0.2c0.3,0,0.5,0.1,0.7,0.2c0.1,0.1,0.2,0.3,0.2,0.5c0,0.3,0,0.9-0.2,1.9
							c-0.1,1-0.3,2-0.4,3c0.4-0.8,0.8-1.5,1.2-2.3c0.1-0.1,0.1-0.2,0.2-0.3c0.5-0.9,1-1.5,1.6-1.9c1.1-0.8,2.4-0.4,2.9,0.2
							c0.3,0.3,0.4,0.8,0.5,1.4c0,0.3,0,0.7,0,1.1c0,0.7,0,1.5-0.1,2.2c0.3-0.6,0.6-1.1,0.9-1.7c0.3-0.6,0.7-1.1,1.1-1.5
							c0.8-0.8,1.7-1.1,2.5-1c1,0.2,1.6,0.9,1.8,2.1c0.1,0.7,0.1,1.9,0,3.6c-0.1,1.5-0.1,2.5-0.1,3c0.2,1.2,1,1.6,1.9,0.7
							c0.2-0.2,0.4-0.4,0.6-0.7c0,0,0.1-0.1,0.1-0.1c0-0.1,0-0.1-0.1-0.2c-0.1-0.3-0.1-0.6-0.2-0.9c-0.2-1.2-0.1-2.3,0.2-3.2
							c0.3-0.9,0.8-1.6,1.5-2.1c0.7-0.4,1.6-0.5,2.6-0.2c0.9,0.2,1.7,0.7,2.3,1.5c0.7,0.7,1.1,1.6,1.2,2.6c0.2,1.2,0,2.1-0.7,2.7
							c-0.6,0.6-1.6,0.9-3.2,1.1c-0.2,0-0.5,0-0.7,0.1c0.2,0.2,0.4,0.5,0.6,0.7c0.4,0.5,1,0.8,1.6,0.9c0.7,0.1,1.2,0.1,1.6-0.1
							c0.4-0.2,0.8-0.7,1.2-1.3C119.8,33.1,120.3,33.2,120.7,33.7z M116.5,29.1c-0.1-0.3-0.2-0.6-0.4-0.8c-0.2-0.2-0.4-0.4-0.7-0.5
							c-0.6-0.1-1,0.1-1.3,0.8c-0.2,0.5-0.3,1.2-0.3,2c0,0.2,0,0.5,0.1,0.7c0.2,0,0.4,0,0.6-0.1c0.6-0.1,1.2-0.3,1.5-0.6
							C116.4,30.2,116.6,29.7,116.5,29.1z"/>
						<path class="st1" d="M116.1,28.3c0.2,0.2,0.3,0.5,0.4,0.8c0.1,0.6-0.1,1.1-0.5,1.5c-0.4,0.3-0.9,0.5-1.5,0.6
							c-0.2,0-0.4,0-0.6,0.1c0-0.2,0-0.5-0.1-0.7c-0.1-0.8,0-1.5,0.3-2c0.3-0.7,0.7-0.9,1.3-0.8C115.7,27.9,115.9,28,116.1,28.3z
							 M116.1,29c0-0.2-0.1-0.4-0.2-0.5c-0.1-0.1-0.2-0.2-0.4-0.2c-0.4-0.1-0.8,0.1-1,0.6c-0.2,0.5-0.3,1.1-0.2,1.8
							c0.6-0.1,1.1-0.2,1.4-0.5C116,29.9,116.2,29.5,116.1,29z"/>
						<path class="st1" d="M115.9,28.5c0.1,0.1,0.2,0.3,0.2,0.5c0.1,0.5-0.1,0.9-0.4,1.2c-0.3,0.2-0.8,0.4-1.4,0.5
							c-0.1-0.7,0-1.3,0.2-1.8c0.2-0.5,0.6-0.7,1-0.6C115.7,28.3,115.8,28.4,115.9,28.5z M115.6,28.9c0-0.1,0-0.2,0-0.2
							c-0.1,0-0.4-0.1-0.7,0.5c-0.1,0.2-0.2,0.5-0.2,0.9c0.2-0.1,0.4-0.2,0.6-0.3C115.7,29.5,115.7,29.1,115.6,28.9z"/>
						<path class="st1" d="M92.3,16.8c0,0.2,0.1,0.9-0.2,1.5c-0.1,0.2-0.2,0.4-0.4,0.5c-0.4,0.5-1.1,0.6-1.9,0.5
							c-0.8-0.1-1.4-0.4-1.8-0.9c-0.4-0.5-0.7-1.2-0.8-1.9c-0.1-0.8,0.2-1.4,0.7-1.9c0.2-0.2,0.5-0.3,0.7-0.4
							c-1.2-0.3-2.2-0.4-3-0.6c-0.7-0.1-1.6-0.2-2.7-0.4c-0.4,3.2-0.7,6.5-1,9.8c-0.1,1.2-0.2,2.7-0.3,4.3c-0.1,1.6-0.2,3-0.2,4
							c0,0.7-0.2,1.2-0.7,1.6c-0.4,0.3-0.9,0.5-1.5,0.4c-0.7,0-1.2-0.2-1.6-0.6c-0.4-0.4-0.6-0.9-0.7-1.6c0-0.5,0-1.2,0.1-2.3
							c0.1-1,0.2-2.1,0.3-3.2c0.1-1.1,0.2-2.1,0.3-2.9c0.1-1.4,0.3-2.8,0.4-4.2c0.2-1.4,0.3-2.7,0.5-3.9c0.1-0.5,0.1-1,0.2-1.5
							c-1.2,0-2.2,0.1-3,0.2c-0.8,0.2-1.3,0.5-1.6,0.8c-0.1,0.1-0.1,0.2-0.2,0.3c-0.4,0.8,0,2,0.4,3.1c0.3,1,0.6,2,0.9,3.1
							c0.7,2.2,1.1,3.5,1,5.1c-0.2,2.5-1.7,4.1-2.5,4.9c-0.5,0.5-1.3,1.3-2.6,1.9c-0.7,0.4-2.3,1.1-4.4,0.9c-0.7-0.1-3-0.3-4.6-2.1
							c-0.1-0.1-0.2-0.3-0.3-0.3c-0.4,0.3-0.8,0.7-1.3,1c-1.2,0.8-2.5,1.2-3.8,1.2c-1.9,0.1-3.3-0.5-4.3-1.6
							c-0.7-0.7-1.1-1.7-1.3-2.8c-0.2,0-0.4,0.1-0.6,0.1c-0.1,0-0.3,0-0.8,0c0.1,0.8,0.2,1.8,0.2,2.8c0.1,1.3,0.1,2.5,0,3.8
							c-0.1,2.1-0.5,3.8-1.2,4.9c-0.8,1.2-1.7,1.9-2.8,2c-1.4,0.1-2.4-0.9-2.8-3c-0.4-1.9-0.5-4.8-0.2-8.7c0.1-0.8,0.1-1.6,0.2-2.5
							c-0.1,0-0.7,0.1-0.8,0.1c0.1,1.2,0.1,2.3,0.1,3.4c0,1.3,0,2.7-0.1,4.2c-0.1,2.1-0.6,3.7-1.3,4.9c-0.8,1.3-1.7,1.9-2.9,2
							c-1.4,0.1-2.4-0.9-2.8-2.9c-0.4-1.9-0.4-4.8,0-8.6c0.1-0.7,0.1-1.4,0.2-2.1c-0.4,0.1-0.8,0.2-1.2,0.3
							c-0.5,1.5-1.2,2.8-2.2,3.8c-1.1,1.1-2.3,1.8-3.6,1.9c-1.1,0.1-2,0-2.7-0.5c-0.3-0.2-0.5-0.4-0.7-0.7c-1.2,0.7-2.5,1.4-3.8,1.8
							c-1.3,0.5-2.6,0.8-3.7,1c-2,0.4-3.7,0.3-5.1-0.2c-1.4-0.5-2.4-1.4-2.9-2.6c-0.6-1.2-0.7-2.8-0.3-4.7c0.5-2.5,1.3-5,2.6-7.2
							c1.2-2.3,2.7-4.2,4.4-5.8c1.7-1.6,3.5-2.6,5.3-3.1c1.8-0.5,3.1-0.3,3.9,0.6c0.8,0.9,1.1,2.2,0.9,4c-0.1,1.2-0.4,2.2-0.9,3
							c-0.5,0.9-1.2,1.4-2,1.6c-0.5,0.1-1,0-1.2-0.2c-0.2-0.2-0.4-0.5-0.3-1.3c0-0.2,0.1-0.5,0.2-1c0.2-0.5,0.3-0.9,0.3-1.2
							c0.2-1.4-0.3-1.8-1.6-1.5c-0.9,0.2-1.9,0.8-2.8,1.7c-1,0.9-1.8,2.2-2.6,3.7c-0.8,1.5-1.3,3.3-1.6,5.2
							c-0.3,1.9-0.1,3.3,0.8,4.2c0.8,0.8,2.3,1.1,4.3,0.7c1-0.2,2.1-0.5,3.2-1c0.7-0.3,1.5-0.7,2.3-1.1c0-0.3,0-0.5,0.1-0.8
							c0.2-1.4,0.6-2.8,1.2-4c0.6-1.2,1.4-2.3,2.4-3.1c0.9-0.8,2-1.3,3-1.5c1.3-0.2,2.4,0.2,3.1,1.1c0.6,0.8,1,1.9,1,3.2
							c0.4-0.1,0.8-0.2,1.2-0.4c0.3-1.6,0.6-3.3,1-4.9c0.9-3.7,2-6.9,3.3-9.5c1.3-2.7,2.7-4.1,4.2-4.3c0.8-0.1,1.5,0.3,1.9,1
							c0.4,0.7,0.6,1.8,0.5,3.2c0,0.5-0.1,1-0.2,1.6c0.5-1.3,1.1-2.5,1.7-3.5C49.5,7,50.7,6,52,5.9c0.9-0.1,1.5,0.4,2,1.3
							c0.4,0.8,0.6,2,0.6,3.4c-0.1,1.7-0.4,3.6-1,5.7c-0.6,2.1-1.5,4.1-2.6,6c-0.6,1-1.2,1.9-2,2.6c0.2-0.1,0.5-0.1,0.7-0.2
							c0.5,0,1-0.1,1.5-0.2c0.1,0,0.2,0,0.3,0c0.1-0.5,0.3-1,0.5-1.5c0.5-1.2,1.3-2.2,2.2-2.9c0.9-0.8,1.9-1.2,3-1.2
							c1,0,1.9,0.3,2.5,1c0.6,0.7,0.9,1.7,0.9,3c0,1.4-0.5,2.7-1.4,3.7c-0.8,0.9-2,1.6-3.7,2.2c0.3,0.3,0.9,0.5,1.5,0.4
							c0.7,0,1.4-0.3,2.3-0.9c0.4-0.3,0.9-0.6,1.3-1c0-0.3,0-0.6,0-0.9c0-1.4,0.3-2.7,0.8-3.8c0.5-1.2,1.2-2.2,2.1-2.9
							c0.9-0.7,1.9-1.1,3-1.1c1,0,1.9,0.4,2.5,1.2c0.6,0.7,1,1.8,1,3c0,1.4-0.4,2.7-1.3,3.7c-0.8,0.9-1.9,1.6-3.6,2.1
							c0.4,0.2,0.9,0.4,1.6,0.5c2.6,0.3,5.7-2,6-4.7c0.4-3.1-2.7-5.6-2.7-9.2c0-0.5,0-1.8,0.6-3.1c0.2-0.4,0.4-0.8,0.7-1.1
							c0.9-1,2.3-1.7,4.1-2c1.8-0.3,4-0.4,6.8-0.2c1.7,0.2,3.1,0.4,4.1,0.6c1,0.2,1.9,0.4,2.7,0.7c0.6,0.2,1,0.5,1.3,0.9
							c0.3,0.4,0.5,0.9,0.6,1.4c0.1,0.8-0.1,1.3-0.4,1.6c-0.1,0.1-0.2,0.1-0.3,0.2c0.2,0.1,0.4,0.2,0.6,0.3c0,0,0.3,0.2,0.5,0.4
							C92.1,15.6,92.3,16.7,92.3,16.8z M91.7,17.7c0.2-0.5,0.2-1,0.2-1.2c0-0.1-0.1-1-0.7-1.5c-0.2-0.2-0.4-0.3-0.4-0.3
							c-0.2-0.1-0.3-0.2-0.5-0.2c-0.2-0.1-0.3-0.2-0.4-0.5c0-0.2,0-0.4,0.2-0.5c0.1,0,0.2-0.1,0.2-0.1c0.3-0.2,0.4-0.7,0.3-1.3
							c0-0.4-0.2-0.7-0.4-1c-0.3-0.3-0.6-0.5-1.1-0.7c-0.8-0.3-1.7-0.5-2.7-0.7c-1-0.2-2.4-0.4-4.1-0.5c-2.7-0.3-5-0.2-6.7,0.2
							c-1.7,0.3-3,1-3.9,1.9c-0.3,0.3-0.5,0.6-0.7,1c-0.6,1.2-0.6,2.4-0.6,2.8c0,1.6,0.7,3,1.4,4.4c0.6,1.2,1.2,2.5,1.3,3.9
							c0,0.3,0,0.7,0,1c-0.4,2.9-3.6,5.4-6.5,5.1c-0.6-0.1-1.2-0.2-1.7-0.6c-0.2-0.1-0.3-0.3-0.3-0.5c0-0.2,0.1-0.4,0.3-0.4
							c1.6-0.5,2.7-1.2,3.4-2c0.8-0.9,1.2-2,1.1-3.3c0-1.1-0.3-2-0.9-2.6c-0.6-0.7-1.3-1-2.2-1c-1,0-2,0.3-2.8,1
							c-0.8,0.7-1.5,1.5-1.9,2.7c-0.5,1.1-0.7,2.3-0.7,3.6c0,0.3,0,0.6,0,0.8c0,0.2,0,0.3-0.2,0.4c-0.4,0.4-0.9,0.8-1.3,1.1
							c-0.9,0.6-1.8,0.9-2.5,0.9c-0.8,0-1.4-0.2-1.8-0.6c-0.1-0.1-0.2-0.3-0.1-0.5c0-0.2,0.2-0.3,0.3-0.4c1.6-0.6,2.8-1.3,3.5-2.1
							c0.8-0.9,1.2-2.1,1.3-3.4c0-1.1-0.3-2-0.8-2.6c-0.5-0.6-1.3-0.9-2.2-0.9c-1,0-2,0.4-2.8,1.1c-0.8,0.7-1.5,1.6-2,2.7
							c-0.2,0.5-0.4,0.9-0.5,1.4c-0.1,0.2-0.2,0.4-0.4,0.4c-0.1,0-0.2,0-0.3,0c-0.5,0.1-1.1,0.1-1.6,0.2c-0.6,0.5-1.2,1-1.9,1.4
							c0,0.1-0.1,0.2-0.1,0.3c-0.1,0.1-0.1,0.3-0.2,0.5c-0.1,0.2-0.2,0.4-0.4,0.4c0,0-0.1,0-0.1,0c-0.2,0-0.4-0.3-0.3-0.5
							c0-0.3,0.1-0.5,0.1-0.8c0-0.2,0.1-0.3,0.2-0.4c0,0,0.1-0.1,0.1-0.1c0,0,0.1-0.1,0.1-0.1c0.4-0.6,1-1,1.5-1.3
							c0,0,0-0.1,0.1-0.1c0.7-0.7,1.3-1.6,1.9-2.5c1.1-1.8,1.9-3.8,2.5-5.8c0.6-2.1,0.9-3.9,1-5.6c0-1.3-0.1-2.4-0.5-3.1
							C53.2,6.4,52.7,6,52,6.1c-1.1,0.1-2.2,1-3.2,2.8c-0.6,1-1.1,2.1-1.6,3.4c-0.1,0.2-0.3,0.4-0.5,0.3c-0.2-0.1-0.3-0.3-0.3-0.5
							c0-0.1,0-0.2,0-0.2c0.1-0.4,0.1-0.9,0.1-1.3c0.1-1.3-0.1-2.3-0.4-2.9c-0.4-0.7-0.9-0.9-1.6-0.9c-1.3,0.1-2.6,1.5-3.8,4
							c-1.2,2.5-2.3,5.6-3.2,9.3c-0.4,1.6-0.7,3.2-1,4.9c0,0.2-0.2,0.4-0.4,0.5c-0.5,0.2-0.9,0.3-1.3,0.4c-0.2,0.1-0.4-0.1-0.4-0.4
							c-0.1-1.2-0.4-2.2-1-2.9c-0.6-0.8-1.6-1.2-2.8-1c-1,0.2-1.9,0.6-2.8,1.4c-0.9,0.7-1.6,1.7-2.2,2.8c-0.6,1.1-1,2.4-1.1,3.8
							c0,0.2,0,0.5,0,0.7c0,0.2-0.1,0.4-0.3,0.5c-0.8,0.4-1.6,0.8-2.3,1.1c-1.1,0.5-2.2,0.8-3.3,1c-2.1,0.4-3.7,0.1-4.6-0.8
							c-0.9-0.9-1.2-2.4-0.8-4.5c0.3-2,0.9-3.8,1.7-5.4c0.8-1.6,1.7-2.9,2.8-3.9c1-1,2.1-1.6,3.1-1.9c1.5-0.4,2.2,0.3,1.9,1.9
							c0,0.3-0.1,0.8-0.3,1.3c-0.1,0.4-0.2,0.7-0.2,0.9c-0.1,0.4,0,0.8,0.2,0.9c0.2,0.2,0.6,0.2,1,0.1c0.6-0.1,1.2-0.6,1.6-1.3
							c0.4-0.7,0.7-1.6,0.8-2.7c0.2-1.6-0.1-2.9-0.8-3.6c-0.7-0.8-1.9-1-3.6-0.5c-1.8,0.5-3.5,1.5-5.1,3c-1.6,1.5-3.1,3.4-4.2,5.6
							c-1.2,2.2-2,4.5-2.5,7c-0.3,1.8-0.2,3.3,0.3,4.5c0.5,1.2,1.4,2,2.8,2.5c2.1,0.7,5,0.4,8.6-0.8c1.3-0.5,2.5-1.1,3.7-1.8
							c0.2-0.1,0.4-0.1,0.5,0c0.2,0.2,0.4,0.4,0.7,0.6c0.6,0.4,1.5,0.6,2.4,0.4c1.2-0.2,2.3-0.7,3.3-1.8c0.9-0.9,1.6-2.1,2.1-3.6
							c0.1-0.2,0.2-0.4,0.4-0.4c0.4-0.1,0.8-0.2,1.2-0.3c0.1,0,0.3,0,0.4,0.1c0.1,0.1,0.1,0.2,0.1,0.4c-0.1,0.7-0.1,1.4-0.2,2
							c-0.3,3.8-0.3,6.6,0,8.4c0.4,1.9,1.1,2.7,2.4,2.6c1-0.1,1.8-0.7,2.5-1.8c0.3-0.4,0.5-0.9,0.7-1.4c0.3-0.9,0.5-2,0.6-3.2
							c0.1-1.5,0.1-2.9,0.1-4.2c0-1.1,0-2.2-0.1-3.4c0-0.1,0-0.3,0.1-0.4c0.1-0.1,0.2-0.2,0.3-0.2c0.1,0,0.4,0,0.6-0.1
							c0.1,0,0.1,0,0.2,0c0,0,0,0,0,0c0.1,0,0.2,0,0.3,0.1c0.1,0.1,0.1,0.2,0.1,0.4c-0.1,0.8-0.2,1.6-0.2,2.4
							c-0.2,3.8-0.2,6.7,0.2,8.5c0.4,1.9,1.2,2.8,2.4,2.7c1-0.1,1.8-0.6,2.4-1.7c0.3-0.4,0.5-0.9,0.6-1.5c0.3-0.9,0.4-2,0.5-3.2
							c0.1-1.2,0.1-2.5,0-3.8c0-1-0.1-1.9-0.2-2.7c0-0.1,0-0.3,0.1-0.4c0.1-0.1,0.2-0.2,0.4-0.2c0.5,0,0.7,0,0.8,0
							c0.2,0,0.4,0,0.6-0.1c0.2,0,0.4,0.1,0.5,0.4c0.2,1,0.6,1.9,1.2,2.6c0.9,1,2.2,1.5,4,1.5c1.3,0,2.5-0.4,3.6-1.1
							c0.5-0.3,0.9-0.6,1.3-0.9c0.2-0.2,0.5-0.1,0.6,0.1c0.1,0.1,0.1,0.2,0.3,0.3c1,1.2,2.4,1.8,4.3,2c2,0.2,3.6-0.6,4.2-0.9
							c0.9-0.5,1.8-1.1,2.5-1.8c0.7-0.8,2.2-2.3,2.4-4.6c0-0.7,0-1.3-0.2-2c-0.2-0.8-0.5-1.7-0.8-2.8c-0.1-0.4-0.3-0.8-0.4-1.2
							c-0.2-0.6-0.4-1.2-0.6-1.8c0-0.1,0-0.1-0.1-0.2c-0.4-1.2-0.8-2.4-0.3-3.4c0.1-0.2,0.2-0.3,0.3-0.4c0.4-0.4,1-0.7,1.8-0.9
							c0.8-0.2,1.8-0.2,3-0.2c0.1,0,0.3,0.1,0.3,0.2c0.1,0.1,0.1,0.3,0.1,0.4c-0.1,0.5-0.1,1-0.2,1.5c-0.2,1.2-0.3,2.5-0.5,3.9
							c-0.2,1.4-0.3,2.8-0.4,4.2c-0.1,0.8-0.2,1.8-0.3,2.9c-0.1,1.1-0.2,2.2-0.3,3.2c-0.1,1-0.1,1.8-0.1,2.2c0,0.5,0.2,0.9,0.5,1.2
							c0.3,0.3,0.7,0.5,1.3,0.5c0.5,0,0.9-0.1,1.3-0.4c0.3-0.3,0.5-0.7,0.5-1.2c0-1,0.1-2.4,0.2-4c0.1-1.7,0.2-3.1,0.3-4.4
							c0.3-3.3,0.7-6.5,1-9.8c0-0.2,0.2-0.4,0.4-0.4c1.1,0.1,2,0.2,2.7,0.4c0.7,0.1,1.7,0.3,3,0.6c0.2,0,0.4,0.2,0.4,0.5
							c0,0.2,0,0.4-0.2,0.5c-0.2,0.1-0.4,0.2-0.6,0.4c-0.4,0.4-0.6,0.9-0.5,1.6c0,0.6,0.2,1.2,0.6,1.6c0.4,0.4,0.9,0.6,1.5,0.7
							c0.7,0.1,1.2-0.1,1.6-0.5C91.5,18,91.6,17.9,91.7,17.7z M47.5,26.3c-0.1,0-0.1,0.1-0.2,0.1c-0.1,0-0.1,0.1-0.2,0.1
							c0,0.3-0.1,0.5-0.1,0.8c0.1-0.2,0.1-0.4,0.2-0.6C47.3,26.6,47.4,26.4,47.5,26.3z"/>
						<path class="st2" d="M91.8,16.5c0,0.2,0.1,0.7-0.2,1.2c-0.1,0.2-0.2,0.3-0.3,0.4c-0.4,0.4-0.9,0.5-1.6,0.5
							c-0.7-0.1-1.2-0.3-1.5-0.7c-0.4-0.4-0.6-0.9-0.6-1.6c0-0.7,0.1-1.2,0.5-1.6c0.2-0.2,0.4-0.3,0.6-0.4c0.2-0.1,0.3-0.3,0.2-0.5
							c0-0.2-0.2-0.4-0.4-0.5c-1.2-0.3-2.2-0.5-3-0.6c-0.7-0.1-1.6-0.3-2.7-0.4c-0.2,0-0.4,0.1-0.4,0.4c-0.4,3.2-0.7,6.5-1,9.8
							c-0.1,1.3-0.2,2.7-0.3,4.4C81,28.6,81,30,81,31c0,0.5-0.2,0.9-0.5,1.2c-0.3,0.3-0.8,0.4-1.3,0.4c-0.5,0-1-0.2-1.3-0.5
							c-0.3-0.3-0.5-0.7-0.5-1.2c0-0.5,0-1.2,0.1-2.2c0.1-1,0.2-2.1,0.3-3.2c0.1-1.1,0.2-2.1,0.3-2.9c0.1-1.4,0.3-2.8,0.4-4.2
							c0.2-1.4,0.3-2.7,0.5-3.9c0.1-0.5,0.1-1,0.2-1.5c0-0.1,0-0.3-0.1-0.4c-0.1-0.1-0.2-0.2-0.3-0.2c-1.3,0-2.3,0.1-3,0.2
							c-0.9,0.2-1.5,0.5-1.8,0.9c-0.1,0.1-0.2,0.3-0.3,0.4c-0.5,1-0.1,2.2,0.3,3.4c0,0.1,0,0.1,0.1,0.2c0.2,0.6,0.4,1.2,0.6,1.8
							c0.1,0.4,0.2,0.8,0.4,1.2c0.4,1.1,0.6,2,0.8,2.8c-0.8,0-1.6,0-2.4,0c-0.1-1.4-0.7-2.6-1.3-3.9c-0.7-1.4-1.4-2.8-1.4-4.4
							c0-0.5,0-1.6,0.6-2.8c0.2-0.4,0.4-0.7,0.7-1c0.8-0.9,2.1-1.6,3.9-1.9c1.7-0.3,4-0.4,6.7-0.2c1.7,0.2,3,0.4,4.1,0.5
							c1,0.2,1.9,0.4,2.7,0.7c0.5,0.2,0.9,0.4,1.1,0.7c0.3,0.3,0.4,0.6,0.4,1c0,0.6-0.1,1-0.3,1.3c-0.1,0-0.1,0.1-0.2,0.1
							c-0.2,0.1-0.2,0.3-0.2,0.5c0,0.2,0.2,0.4,0.4,0.5c0.2,0.1,0.4,0.1,0.5,0.2c0,0,0.2,0.1,0.4,0.3C91.7,15.5,91.8,16.4,91.8,16.5
							z"/>
						<path class="st2" d="M75.7,23.2c0.2,0.7,0.2,1.3,0.2,2c-0.2,2.3-1.6,3.9-2.4,4.6c-0.7,0.8-1.6,1.4-2.5,1.8
							c-0.6,0.3-2.2,1.1-4.2,0.9c-1.9-0.2-3.3-0.8-4.3-2c-0.1-0.1-0.2-0.2-0.3-0.3c-0.2-0.2-0.4-0.2-0.6-0.1
							c-0.4,0.3-0.8,0.7-1.3,0.9c-1.1,0.7-2.3,1.1-3.6,1.1c-1.7,0-3.1-0.4-4-1.5c-0.6-0.7-1-1.5-1.2-2.6c0-0.2-0.2-0.4-0.5-0.4
							c-0.2,0-0.4,0.1-0.6,0.1c-0.1,0-0.3,0-0.8,0c-0.1,0-0.3,0.1-0.4,0.2c-0.1,0.1-0.1,0.3-0.1,0.4c0.1,0.8,0.2,1.7,0.2,2.7
							c0,1.3,0,2.5,0,3.8c-0.1,1.2-0.2,2.3-0.5,3.2c-0.6-0.1-1.2-0.2-1.8-0.3c0.1-0.4,0.2-1,0.2-1.7c0.1-1.3,0.1-2.6,0-3.8
							c-0.1-1.2-0.1-2.2-0.2-3c0,0,0-0.1,0-0.1c0-0.2-0.1-0.4-0.3-0.4c0-0.1,0-0.1,0-0.2c0-0.1,0-0.1,0-0.2c0-0.4,0.1-0.7,0.1-1.1
							c0.2,0,0.4-0.2,0.4-0.4c0-0.2,0.1-0.3,0.2-0.5c0-0.1,0.1-0.2,0.1-0.3c0.6-0.5,1.2-0.9,1.9-1.4c0.6-0.1,1.1-0.1,1.6-0.2
							c0.1,0,0.2,0,0.3,0c0.2,0,0.3-0.2,0.4-0.4c0.1-0.5,0.3-1,0.5-1.4c0.5-1.1,1.2-2,2-2.7c0.8-0.7,1.8-1.1,2.8-1.1
							c0.9,0,1.7,0.3,2.2,0.9c0.5,0.6,0.8,1.5,0.8,2.6c0,1.3-0.4,2.4-1.3,3.4c-0.7,0.8-1.9,1.5-3.5,2.1c-0.2,0.1-0.3,0.2-0.3,0.4
							c0,0.2,0,0.4,0.1,0.5c0.4,0.4,1,0.6,1.8,0.6c0.7,0,1.6-0.3,2.5-0.9c0.5-0.3,0.9-0.6,1.3-1.1c0.1-0.1,0.2-0.3,0.2-0.4
							c0-0.2,0-0.5,0-0.8c0-1.3,0.3-2.5,0.7-3.6c0.5-1.1,1.1-2,1.9-2.7c0.8-0.7,1.8-1,2.8-1c0.9,0,1.7,0.3,2.2,1
							c0.6,0.7,0.9,1.5,0.9,2.6c0,1.3-0.4,2.4-1.1,3.3c-0.7,0.8-1.8,1.5-3.4,2c-0.2,0.1-0.3,0.2-0.3,0.4c0,0.2,0.1,0.4,0.3,0.5
							c0.6,0.3,1.1,0.5,1.7,0.6c2.9,0.3,6.1-2.2,6.5-5.1c0-0.3,0.1-0.7,0-1C74.1,23.2,74.9,23.2,75.7,23.2z M67.1,23.2
							c0-0.4-0.1-0.6-0.3-0.9c-0.2-0.2-0.4-0.3-0.7-0.3c-0.6,0-1.1,0.4-1.5,1.2c-0.3,0.6-0.5,1.4-0.6,2.3c0,0.2,0.1,0.3,0.2,0.4
							c0.1,0.1,0.2,0.1,0.3,0.1c0,0,0.1,0,0.1,0c0.7-0.3,1.2-0.6,1.7-1C66.9,24.5,67.1,23.9,67.1,23.2z M57.7,23.3
							c0-0.4-0.1-0.6-0.2-0.8c-0.2-0.2-0.4-0.3-0.7-0.3c-0.6,0-1.1,0.4-1.5,1.3c-0.4,0.6-0.6,1.4-0.7,2.3c0,0.2,0,0.3,0.1,0.4
							c0.1,0.1,0.2,0.1,0.3,0.1c0,0,0.1,0,0.1,0c0.7-0.3,1.3-0.6,1.7-1.1C57.4,24.6,57.7,24,57.7,23.3z"/>
						<path class="st1" d="M66.9,22.4c0.2,0.2,0.3,0.5,0.3,0.9c0,0.7-0.3,1.3-0.8,1.8c-0.4,0.4-1,0.7-1.7,1c0,0-0.1,0-0.1,0
							c-0.1,0-0.2,0-0.3-0.1c-0.1-0.1-0.2-0.3-0.2-0.4c0.1-0.9,0.3-1.6,0.6-2.3c0.4-0.8,0.9-1.2,1.5-1.2
							C66.5,22,66.7,22.1,66.9,22.4z M66.7,23.2c0-0.2,0-0.4-0.1-0.5c-0.1-0.1-0.2-0.2-0.4-0.2c-0.4,0-0.8,0.3-1.1,1
							c-0.3,0.6-0.5,1.3-0.5,2.1c0.6-0.2,1.1-0.5,1.5-0.9C66.5,24.2,66.7,23.7,66.7,23.2z"/>
						<path class="st1" d="M66.6,22.7c0.1,0.1,0.1,0.3,0.1,0.5c0,0.5-0.2,1-0.7,1.4c-0.4,0.4-0.9,0.7-1.5,0.9
							c0.1-0.8,0.2-1.5,0.5-2.1c0.3-0.6,0.7-1,1.1-1C66.4,22.5,66.5,22.6,66.6,22.7z M66.3,23.2c0-0.1,0-0.2,0-0.2
							c-0.2,0-0.5,0-0.8,0.7c-0.2,0.3-0.3,0.6-0.4,1c0.3-0.2,0.5-0.3,0.7-0.5C66.2,23.8,66.3,23.5,66.3,23.2z"/>
						<path class="st1" d="M57.4,22.5c0.2,0.2,0.2,0.5,0.2,0.8c0,0.7-0.3,1.3-0.9,1.8c-0.4,0.4-1,0.8-1.7,1.1c-0.1,0-0.1,0-0.1,0
							c-0.1,0-0.2,0-0.3-0.1c-0.1-0.1-0.2-0.3-0.1-0.4c0.1-0.9,0.3-1.6,0.7-2.3c0.4-0.8,0.9-1.2,1.5-1.3
							C57,22.1,57.3,22.2,57.4,22.5z M57.2,23.3c0-0.2,0-0.4-0.1-0.5c0-0.1-0.1-0.1-0.4-0.1c-0.4,0-0.8,0.3-1.2,1
							c-0.3,0.6-0.5,1.3-0.6,2.1c0.6-0.3,1.1-0.6,1.5-0.9C57,24.3,57.2,23.8,57.2,23.3z"/>
						<path class="st1" d="M57.1,22.8c0.1,0.1,0.1,0.3,0.1,0.5c0,0.5-0.2,1-0.7,1.5c-0.4,0.4-0.9,0.7-1.5,0.9
							c0.1-0.8,0.3-1.5,0.6-2.1c0.3-0.7,0.7-1,1.2-1C57,22.6,57.1,22.7,57.1,22.8z M56.8,23.3c0-0.1,0-0.2,0-0.2
							c-0.2,0-0.4,0-0.8,0.8c-0.2,0.3-0.3,0.6-0.4,1c0.3-0.2,0.5-0.3,0.7-0.5C56.7,23.9,56.8,23.6,56.8,23.3z"/>
						<path class="st3" d="M53.6,7.1c0.4,0.8,0.5,1.8,0.5,3.1c-0.1,1.6-0.4,3.5-1,5.6c-0.6,2.1-1.4,4-2.5,5.8
							c-0.6,1-1.2,1.8-1.9,2.5c0,0-0.1,0.1-0.1,0.1c-0.5,0.3-1,0.7-1.5,1.3c0,0-0.1,0.1-0.1,0.1c0,0-0.1,0.1-0.1,0.1
							c-0.1,0.1-0.2,0.2-0.2,0.4c0,0.3-0.1,0.5-0.1,0.8c0,0.3,0.1,0.5,0.3,0.5c0,0,0,0,0.1,0c0,0.4-0.1,0.7-0.1,1.1
							c0,0.1,0,0.3,0,0.4c-0.2,0.1-0.3,0.2-0.3,0.5c0,0.5-0.1,0.9-0.1,1.4c-0.1,1.8-0.2,3.6-0.1,5.4c0,1,0,1.8,0.1,2.2
							c0,0.2,0.2,0.3,0.3,0.3c0,0,0,0,0,0c0.1,0,0.3-0.1,0.4-0.3c0-0.1,0-0.1,0.1-0.2c0-0.1,0.1-0.2,0.1-0.4
							c0.6,0.1,1.2,0.2,1.8,0.3c-0.2,0.6-0.4,1-0.6,1.5c-0.7,1.1-1.5,1.7-2.4,1.7c-1.2,0.1-2-0.8-2.4-2.7c-0.4-1.9-0.5-4.7-0.2-8.5
							c0.1-0.8,0.1-1.6,0.2-2.4c0-0.1,0-0.3-0.1-0.4c-0.1-0.1-0.2-0.1-0.3-0.1c0,0,0,0,0,0c-0.1,0-0.1,0-0.2,0
							c-0.2,0-0.5,0.1-0.6,0.1c-0.1,0-0.2,0.1-0.3,0.2c-0.1,0.1-0.1,0.3-0.1,0.4c0.1,1.2,0.1,2.3,0.1,3.4c0,1.2,0,2.7-0.1,4.2
							c-0.1,1.3-0.3,2.3-0.6,3.2c-0.6,0-1.2,0.1-1.8,0.1c0.2-0.4,0.3-1,0.3-1.9c0.1-1.6,0.2-3,0.1-4.1c0-1.2-0.1-2.1-0.2-2.9
							c0-0.1-0.1-0.3-0.2-0.3c0-0.4,0-0.7-0.1-1c0,0,0,0,0,0c0,0,0,0,0,0c0-0.2,0.1-0.4,0.1-0.6c0.2,0,0.4-0.2,0.4-0.4
							c0.2-0.4,0.4-0.9,0.8-1.2c0.6-0.6,1.3-0.9,2.3-1c0.2,0,0.4,0,0.5,0c0.2,0,0.4-0.2,0.5-0.5c0.3-1.9,0.7-3.8,1.1-5.5
							c0.1-0.3,0-0.5-0.2-0.6c0,0-0.1,0-0.1,0c-0.2,0-0.3,0.1-0.4,0.3c-0.7-0.1-1.5-0.2-2.2-0.3c0.3-0.7,0.6-1.3,0.9-2
							c0.6-1.8,1-3.4,1.2-4.8c0.7,0,1.4,0,2.2,0c0,0.1,0,0.2,0,0.2c0,0.3,0.1,0.5,0.3,0.5c0.2,0,0.4-0.1,0.5-0.3
							c0.5-1.3,1.1-2.4,1.6-3.4c1-1.8,2.1-2.7,3.2-2.8C52.7,6,53.2,6.4,53.6,7.1z M51.9,10.9c0-0.7,0-1.2-0.2-1.5
							c-0.1-0.1-0.2-0.2-0.3-0.2c-0.1,0-0.2,0-0.3,0.1c-0.3,0.3-0.6,0.9-0.9,1.9c-0.5,1.3-1,3.1-1.5,5.2c-0.4,1.7-0.8,3.4-1.1,5.1
							c0,0.2,0,0.4,0.2,0.5c0.1,0,0.1,0,0.2,0c0.1,0,0.2-0.1,0.3-0.2c0.5-0.7,1-1.5,1.5-2.4c0.7-1.4,1.2-2.9,1.6-4.5
							C51.6,13.5,51.8,12.1,51.9,10.9z"/>
						<path class="st1" d="M51.7,9.4c0.2,0.2,0.2,0.7,0.2,1.5c0,1.3-0.2,2.7-0.6,4.2c-0.4,1.5-0.9,3-1.6,4.5
							c-0.4,0.9-0.9,1.7-1.5,2.4c-0.1,0.1-0.2,0.2-0.3,0.2c-0.1,0-0.1,0-0.2,0c-0.2-0.1-0.2-0.3-0.2-0.5c0.3-1.8,0.7-3.5,1.1-5.1
							c0.5-2.1,1.1-3.9,1.5-5.2c0.4-1,0.7-1.6,0.9-1.9c0.1-0.1,0.2-0.1,0.3-0.1C51.5,9.2,51.6,9.3,51.7,9.4z M51.4,10.9
							c0-0.8-0.1-1.1-0.1-1.2c-0.1,0.1-0.4,0.4-0.8,1.7c-0.5,1.3-1,3-1.5,5.1c-0.4,1.6-0.8,3.4-1.1,5.1c0.5-0.7,1-1.4,1.4-2.3
							c0.7-1.4,1.2-2.9,1.5-4.4C51.2,13.5,51.4,12.1,51.4,10.9z"/>
						<path class="st1" d="M51.3,9.7c0,0.1,0.1,0.3,0.1,1.2c0,1.2-0.2,2.6-0.6,4.1c-0.4,1.5-0.9,3-1.5,4.4c-0.4,0.9-0.9,1.6-1.4,2.3
							c0.3-1.7,0.7-3.5,1.1-5.1c0.5-2.1,1-3.8,1.5-5.1C51,10.1,51.3,9.8,51.3,9.7z M51,11.3c0,0.1-0.1,0.2-0.1,0.3
							c-0.5,1.3-1,3-1.5,5.1c-0.2,0.9-0.5,1.9-0.7,2.9c0.1-0.1,0.1-0.2,0.2-0.4c0.7-1.4,1.2-2.8,1.5-4.2
							C50.8,13.6,50.9,12.3,51,11.3z"/>
						<path class="st1" d="M47.4,36.3c0,0.7-0.1,1.2-0.2,1.7c0,0.1-0.1,0.3-0.1,0.4c0,0.1,0,0.1-0.1,0.2c-0.1,0.2-0.2,0.3-0.4,0.3
							c0,0,0,0,0,0c-0.2,0-0.3-0.1-0.3-0.3c-0.1-0.4-0.1-1.2-0.1-2.2c0-1.8,0.1-3.6,0.1-5.4c0-0.5,0-0.9,0.1-1.4
							c0-0.2,0.1-0.4,0.3-0.5c0,0.4-0.1,0.7-0.1,1.1C46.7,32,46.6,34,46.6,36c0,1.3,0.1,2,0.1,2.3c0,0,0-0.1,0.1-0.2
							c0.2-0.4,0.3-1.1,0.3-2.1c0.1-1.4,0.1-2.8,0-4.1c-0.1-1.2-0.1-2.2-0.2-3c0.2,0,0.3,0.2,0.3,0.4c0,0.1,0,0.1,0,0.1
							c0.1,0.8,0.1,1.8,0.2,3C47.5,33.7,47.5,35,47.4,36.3z"/>
						<path class="st1" d="M47.1,32c0.1,1.3,0.1,2.7,0,4.1c0,0.9-0.1,1.6-0.3,2.1c0,0.1,0,0.1-0.1,0.2c-0.1-0.3-0.1-1-0.1-2.3
							c0-2,0-4,0.1-5.9c0-0.4,0-0.7,0.1-1.1c0,0,0,0,0.1,0c0,0,0,0,0,0C47,29.8,47.1,30.8,47.1,32z"/>
						<path class="st1" d="M47.3,26.4c0.1,0,0.1-0.1,0.2-0.1c-0.1,0.1-0.2,0.3-0.2,0.4c-0.1,0.2-0.2,0.4-0.2,0.6
							c0-0.3,0.1-0.5,0.1-0.8C47.2,26.5,47.2,26.5,47.3,26.4z"/>
						<path class="st2" d="M46.5,10.5c0,0.4-0.1,0.8-0.1,1.3c-0.7,0-1.4,0-2.2,0c0-0.2,0-0.4,0-0.6c0-0.5,0-0.8-0.1-1
							c0-0.1-0.2-0.2-0.3-0.3c-0.1,0-0.3,0.1-0.4,0.2c-0.2,0.3-0.5,0.8-0.7,1.5c-0.5,1.2-0.9,2.7-1.4,4.6c-0.3,1.3-0.7,2.7-1,4.1
							c0,0.2,0,0.4,0.2,0.5c0.1,0,0.1,0,0.2,0c0.1,0,0.3-0.1,0.4-0.3c0.4-0.6,0.8-1.3,1.1-2c0.7,0.1,1.5,0.2,2.2,0.3
							c-1.1,2.3-2.7,4.8-5,7.3c-0.1,0.1-0.1,0.2-0.1,0.3c0,0.3-0.1,0.5-0.1,0.8c0,0.3,0.1,0.5,0.3,0.5c0,0,0.1,0,0.1,0
							c0,0.2-0.1,0.4-0.1,0.6c0,0.3-0.1,0.6-0.1,1.1c-0.2,0-0.3,0.2-0.3,0.4c0,0.2-0.1,0.6-0.1,1.1c0,0.1,0,0.4-0.1,0.8
							c-0.1,1.6-0.2,3.3-0.2,5c0,0.9,0,1.6,0.1,2.1c0,0.2,0.2,0.3,0.3,0.3c0,0,0,0,0,0c0.1,0,0.3-0.1,0.4-0.3c0-0.1,0.1-0.1,0.1-0.2
							c0.6,0,1.2-0.1,1.8-0.1c-0.2,0.5-0.4,1-0.7,1.4C39.8,41.3,39,41.9,38,42c-1.2,0.1-2-0.7-2.4-2.6c-0.4-1.8-0.4-4.7,0-8.4
							c0.1-0.7,0.1-1.4,0.2-2c0-0.1,0-0.3-0.1-0.4c-0.1-0.1-0.2-0.1-0.4-0.1c-0.4,0.1-0.8,0.2-1.2,0.3c-0.2,0-0.4,0.2-0.4,0.4
							c-0.5,1.4-1.2,2.6-2.1,3.6c-1,1-2.1,1.6-3.3,1.8c-1,0.1-1.8,0-2.4-0.4c-0.3-0.2-0.5-0.4-0.7-0.6c-0.1-0.1-0.3-0.1-0.5,0
							c-1.2,0.7-2.5,1.3-3.7,1.8c-3.5,1.3-6.5,1.5-8.6,0.8c-1.3-0.5-2.2-1.3-2.8-2.5c-0.5-1.2-0.6-2.7-0.3-4.5
							c0.4-2.5,1.3-4.8,2.5-7c1.2-2.2,2.6-4.1,4.2-5.6c1.6-1.5,3.3-2.5,5.1-3c1.7-0.4,2.9-0.2,3.6,0.5c0.7,0.8,1,2,0.8,3.6
							c-0.1,1.1-0.4,2-0.8,2.7c-0.4,0.7-1,1.2-1.6,1.3c-0.4,0.1-0.8,0-1-0.1c-0.2-0.2-0.3-0.5-0.2-0.9c0-0.2,0.1-0.5,0.2-0.9
							c0.2-0.6,0.3-1,0.3-1.3c0.2-1.6-0.5-2.2-1.9-1.9c-1,0.3-2.1,0.9-3.1,1.9c-1,1-2,2.3-2.8,3.9c-0.8,1.6-1.4,3.4-1.7,5.4
							c-0.3,2.1-0.1,3.5,0.8,4.5c0.9,0.9,2.4,1.1,4.6,0.8c1-0.2,2.1-0.5,3.3-1c0.7-0.3,1.5-0.7,2.3-1.1c0.2-0.1,0.3-0.3,0.3-0.5
							c0-0.2,0-0.5,0-0.7c0.2-1.4,0.6-2.6,1.1-3.8c0.6-1.1,1.3-2.1,2.2-2.8c0.9-0.7,1.8-1.2,2.8-1.4c1.2-0.2,2.1,0.2,2.8,1
							c0.6,0.8,0.9,1.7,1,2.9c0,0.3,0.2,0.4,0.4,0.4c0.4-0.1,0.8-0.2,1.3-0.4c0.2-0.1,0.3-0.3,0.4-0.5c0.3-1.6,0.6-3.3,1-4.9
							c0.9-3.7,2-6.8,3.2-9.3c1.2-2.5,2.5-3.9,3.8-4c0.7-0.1,1.2,0.2,1.6,0.9C46.4,8.3,46.6,9.3,46.5,10.5z M31.2,29.2
							c0-0.2,0-0.4-0.1-0.5c-0.4-0.3-0.6-0.7-0.8-1.2c-0.2-0.6-0.3-1.2-0.2-1.9c0-0.1,0-0.2,0-0.3c0-0.2,0-0.3-0.1-0.4
							c-0.1-0.1-0.2-0.1-0.4,0c-0.4,0.2-0.9,0.6-1.2,1.1c-0.5,0.8-0.8,1.8-1,3c-0.1,1,0,1.7,0.3,2.2c0.3,0.5,0.7,0.7,1.2,0.6
							c0.5-0.1,1-0.4,1.4-0.9C30.7,30.6,31,29.9,31.2,29.2z"/>
						<path class="st1" d="M44.9,18.7c0.2,0.1,0.3,0.3,0.2,0.6c-0.4,1.8-0.8,3.6-1.1,5.5c0,0.3-0.2,0.5-0.5,0.5c-0.2,0-0.4,0-0.5,0
							c-0.9,0.1-1.7,0.4-2.3,1c-0.4,0.4-0.6,0.8-0.8,1.2c-0.1,0.2-0.2,0.4-0.4,0.4c0,0-0.1,0-0.1,0c-0.2,0-0.3-0.2-0.3-0.5
							c0-0.3,0.1-0.5,0.1-0.8c0-0.1,0.1-0.2,0.1-0.3c2.3-2.6,3.9-5.1,5-7.3c0.1-0.2,0.2-0.3,0.4-0.3c-1.1,2.3-2.8,4.8-5.1,7.5
							c0,0.3-0.1,0.5-0.1,0.8c0.2-0.5,0.5-1,1-1.5c0.4-0.4,0.9-0.7,1.5-0.9c0.2-0.1,0.4-0.1,0.7-0.2c0.1,0,0.3-0.1,0.4-0.1
							c0,0,0,0,0,0c0.1,0,0.1,0,0.2,0c0.1,0,0.3,0,0.4,0c0.3-1.9,0.7-3.8,1.2-5.6C44.8,18.7,44.8,18.7,44.9,18.7z"/>
						<path class="st1" d="M44.7,18.7c-0.5,1.8-0.8,3.7-1.2,5.6c-0.1,0-0.3,0-0.4,0c0.1-0.8,0.3-1.5,0.4-2.3
							c-0.5,0.8-1.1,1.7-1.8,2.6c0,0,0.1,0,0.1,0c-0.6,0.2-1,0.5-1.5,0.9c-0.5,0.4-0.8,0.9-1,1.5c0-0.3,0.1-0.5,0.1-0.8
							C41.9,23.6,43.6,21.1,44.7,18.7z"/>
						<path class="st1" d="M44.2,11.2c0,0.2,0,0.4,0,0.6c-0.2,1.4-0.6,3.1-1.2,4.8c-0.3,0.7-0.5,1.4-0.9,2c-0.3,0.7-0.7,1.3-1.1,2
							c-0.1,0.1-0.2,0.2-0.4,0.3c-0.1,0-0.1,0-0.2,0c-0.2-0.1-0.3-0.3-0.2-0.5c0.3-1.4,0.6-2.8,1-4.1c0.5-1.9,1-3.5,1.4-4.6
							c0.3-0.7,0.5-1.2,0.7-1.5c0.1-0.1,0.2-0.2,0.4-0.2c0.1,0,0.3,0.1,0.3,0.3C44.2,10.4,44.3,10.8,44.2,11.2z M43.8,11.3
							c0-0.5,0-0.7,0-0.8c-0.1,0.1-0.3,0.5-0.7,1.4c-0.4,1.1-0.9,2.7-1.4,4.5c-0.3,1.3-0.7,2.6-1,4c0.8-1.2,1.4-2.5,1.9-3.9
							C43.3,14.6,43.7,12.8,43.8,11.3z"/>
						<path class="st3" d="M43,24.4c-0.1,0-0.3,0-0.4,0.1C42.7,24.4,42.9,24.4,43,24.4z"/>
						<path class="st1" d="M43.8,10.4c0,0.1,0.1,0.4,0,0.8c-0.1,1.5-0.5,3.3-1.2,5.2c-0.5,1.3-1.1,2.6-1.9,3.9c0.3-1.4,0.6-2.7,1-4
							c0.5-1.9,1-3.4,1.4-4.5C43.5,11,43.7,10.6,43.8,10.4z M42.2,16.4c0.5-1.4,0.8-2.6,1-3.8c-0.4,1-0.8,2.3-1.2,3.8
							c-0.1,0.3-0.1,0.5-0.2,0.8C42,16.9,42.1,16.7,42.2,16.4z"/>
						<path class="st1" d="M39.8,32.9c0,1.2,0,2.6-0.1,4.1c-0.1,0.9-0.2,1.5-0.3,1.9c0,0.1-0.1,0.1-0.1,0.2
							c-0.1,0.2-0.2,0.3-0.4,0.3c0,0,0,0,0,0c-0.2,0-0.3-0.1-0.3-0.3c-0.1-0.4-0.1-1.1-0.1-2.1c0-1.7,0.1-3.4,0.2-5
							c0-0.4,0.1-0.7,0.1-0.8c0-0.5,0.1-0.8,0.1-1.1c0-0.2,0.2-0.4,0.3-0.4c0,0,0,0,0,0.1c0,0.1,0,0.5-0.1,1
							c-0.1,1.9-0.2,3.8-0.3,5.8c0,1.3,0,2,0.1,2.3c0,0,0-0.1,0.1-0.2c0.1-0.3,0.3-0.9,0.3-2c0.1-1.8,0.2-3.4,0.2-4.7
							c0-0.9,0-1.6-0.1-2.3c0.1,0,0.2,0.2,0.2,0.3C39.7,30.7,39.8,31.7,39.8,32.9z"/>
						<path class="st1" d="M39.5,31.9c0,1.4,0,3-0.2,4.7c-0.1,1.2-0.2,1.8-0.3,2c0,0.1-0.1,0.1-0.1,0.2c0-0.3-0.1-1-0.1-2.3
							c0-2,0.1-3.9,0.3-5.8c0-0.5,0.1-0.9,0.1-1c0,0,0,0,0-0.1c0,0,0,0,0.1,0c0.1,0,0.1,0,0.2,0C39.5,30.3,39.5,31.1,39.5,31.9z"/>
						<path class="st2" d="M39.4,29.7c0,0-0.1,0-0.2,0c0,0,0,0-0.1,0c0-0.4,0.1-0.8,0.1-1.1c0,0,0,0,0,0c0,0,0,0,0,0
							C39.4,28.9,39.4,29.3,39.4,29.7z"/>
						<path class="st1" d="M31.1,28.7c0.1,0.1,0.2,0.3,0.1,0.5c-0.2,0.8-0.5,1.4-0.9,1.8c-0.4,0.5-0.9,0.8-1.4,0.9
							c-0.5,0.1-0.9-0.2-1.2-0.6c-0.3-0.5-0.4-1.2-0.3-2.2c0.1-1.3,0.5-2.3,1-3c0.4-0.6,0.8-0.9,1.2-1.1c0.1-0.1,0.3-0.1,0.4,0
							c0.1,0.1,0.1,0.2,0.1,0.4c0,0.1,0,0.2,0,0.3c-0.1,0.7,0,1.3,0.2,1.9C30.5,28,30.8,28.4,31.1,28.7z M30,30.7
							c0.3-0.4,0.6-0.9,0.8-1.6c-0.4-0.3-0.7-0.8-0.9-1.4c-0.2-0.6-0.3-1.3-0.2-2.1c0-0.1,0-0.2,0-0.3c-0.3,0.2-0.7,0.5-0.9,0.9
							c-0.4,0.7-0.7,1.6-0.9,2.8c-0.1,0.9,0,1.5,0.2,1.9c0.2,0.4,0.5,0.5,0.8,0.5C29.4,31.4,29.7,31.1,30,30.7z"/>
						<path class="st1" d="M30.8,29.1c-0.2,0.7-0.5,1.2-0.8,1.6c-0.3,0.4-0.7,0.6-1.1,0.7c-0.3,0-0.6-0.1-0.8-0.5
							c-0.2-0.4-0.3-1-0.2-1.9c0.1-1.2,0.4-2.1,0.9-2.8c0.3-0.5,0.6-0.8,0.9-0.9c0,0.1,0,0.2,0,0.3c-0.1,0.8,0,1.5,0.2,2.1
							C30.1,28.4,30.4,28.8,30.8,29.1z M29.8,30.5c0.2-0.3,0.4-0.6,0.6-1.1c-0.4-0.4-0.6-0.8-0.8-1.3c-0.2-0.5-0.3-1.1-0.3-1.7
							c0,0-0.1,0.1-0.1,0.2c-0.4,0.6-0.6,1.4-0.7,2.5c-0.1,0.8,0,1.3,0.2,1.7c0.2,0.3,0.4,0.3,0.5,0.3
							C29.3,30.9,29.5,30.7,29.8,30.5z"/>
					</g>
				</g>
			</g>
		</g>
	</g>
	<g>
		<g id="XMLID_1_">
			<g>
				<path class="st4" d="M62.5,8.9C62.5,8.9,62.5,8.9,62.5,8.9c0.1,0,0.1,0,0.2,0h0c0,0,0.1-0.1,0.1-0.1c0,0,0,0,0,0
					c-0.1,0-0.1,0-0.2,0C62.5,8.9,62.5,8.9,62.5,8.9z M68.2,11c0,0.9,0,1.8-0.1,2.6l0,0.1c0,0.4-0.2,1.2-0.5,2.1
					c-0.1,0.3-0.3,0.6-0.4,0.9c-0.2,0.3-0.5,0.5-0.7,0.7c-0.6,0.4-1.2,0.4-2.3,0.5c-0.1,0-0.2,0-0.3,0c-0.6,0-1.2-0.1-1.8-0.2
					c-0.4-0.1-0.7-0.2-1-0.5c-0.2-0.2-0.4-0.4-0.6-0.7c-0.1-0.1-0.3-0.2-0.4-0.2c-0.3-0.1-0.5-0.1-0.6-0.2l-0.1,0
					c-0.5-0.1-1-0.3-1.5-0.5c-0.5-0.3-1.4-1.2-1.2-2.3c0.1-0.8,0.8-1.3,0.9-1.4c0.4-0.2,0.8-0.3,1.2-0.3c0.2,0,0.4,0,0.6,0.1
					c0-0.3,0-0.5,0-0.6c0-0.1,0-0.2,0.1-0.4c-0.1-0.2-0.1-0.4,0-0.5c0-0.2,0.1-0.3,0.2-0.4c0.1-0.2,0.2-0.3,0.4-0.4
					c-0.2-0.2-0.4-0.5-0.6-0.8C59.1,8.2,59,7.8,59,7.4c-0.2-0.2-0.9-1-0.7-2l0-0.1l0.1,0c0.2,0,0.4,0,0.5,0c0,0,0.1,0,0.1,0
					c0.4,0,0.6,0.1,0.8,0.2c0.1,0,0.2,0.1,0.3,0.1c0,0,0.1,0,0.1,0c0.2,0,0.5-0.1,0.8-0.3c0.4-0.2,0.8-0.4,1.3-0.4
					c0.1,0,0.1,0,0.2,0c0.1-0.3,0.3-0.7,0.7-1c0.2-0.1,0.3-0.2,0.5-0.3c0,0,0.1,0,0.2,0c0.1,0,0.2,0,0.2,0c0.2,0.1,0.3,0.2,0.3,0.3
					c0.1,0.2,0.2,0.4,0.2,0.6c0.1,0.3,0.1,0.6,0.1,1c0.2,0.1,0.6,0.5,0.4,1.3c0,0,0,0.1,0.1,0.1c0.1,0.1,0.2,0.2,0.3,0.2l0.3,0
					l0,0.2c0,0-0.1,0.3-0.3,0.5c0,0.2,0,0.5-0.2,0.8c0.4,0.3,0.7,0.7,0.7,1.2c0.2,0.1,0.6,0.2,0.8,0.5c0.1,0.1,0.1,0.2,0.2,0.3
					c0.7,0,0.9,0.2,1,0.3l0,0.1L68.2,11z M67.7,13.6c0.1-0.9,0.1-1.7,0.1-2.6l0-0.1c-0.1,0-0.2-0.1-0.4-0.1c0,0.2,0,0.3,0,0.4
					c0,0.4-0.2,0.8-0.4,0.9c0,0-0.3,0.3-0.8,0.3c-0.3,0-0.5-0.1-0.8-0.4c-0.1-0.1-0.2-0.3-0.3-0.7c-0.1,0-0.1,0-0.2,0c0,0,0,0-0.1,0
					c-0.2,0-0.3,0.1-0.5,0.1h-0.1c0,0.2-0.1,0.5-0.4,0.7c-0.2,0.1-0.5,0.2-0.7,0.2c-0.3,0-0.6-0.1-0.8-0.2c-0.1-0.1-0.5-0.3-0.7-0.6
					c-0.4,0-1.5-0.1-2.1-0.3c0,0.2,0,0.4,0,0.7l0,0.3l-0.3-0.1c0,0-0.3-0.1-0.7-0.1c-0.4,0-0.7,0.1-0.9,0.3
					c-0.1,0.1-0.6,0.4-0.7,1.1c-0.1,0.9,0.5,1.6,1,1.9c0.5,0.3,0.9,0.4,1.3,0.5l0,0c0.2,0,0.5,0.1,0.8,0.2c0.2,0.1,0.4,0.2,0.5,0.3
					l0,0l0,0c0.1,0.2,0.3,0.5,0.5,0.6c0.3,0.2,0.5,0.3,0.8,0.4c0.5,0.1,1.1,0.2,1.7,0.2c0.1,0,0.2,0,0.3,0c1.1,0,1.6-0.1,2.1-0.4
					c0.2-0.2,0.4-0.4,0.6-0.6c0.2-0.2,0.3-0.5,0.4-0.8C67.6,14.8,67.7,14,67.7,13.6L67.7,13.6z M67,11.2c0-0.1,0-0.5-0.2-0.8
					C66.4,10,66.1,10,65.9,10l-0.2,0l0.1-0.2c0.2-0.8-0.6-1.1-0.7-1.1l-0.3-0.1L65,8.2c0.3-0.3,0.2-0.7,0.2-0.8l-0.1-0.3h0.3
					c0,0,0,0,0,0c-0.4-0.1-0.5-0.4-0.5-0.6l0,0v0l0,0c0.1-0.4,0-0.6-0.1-0.8c-0.1-0.1-0.2-0.2-0.2-0.2l-0.1-0.1l0-0.1
					c0-0.4,0-0.7-0.1-1c-0.1-0.2-0.1-0.3-0.2-0.5c0,0,0-0.1-0.1-0.1c0,0,0,0-0.1,0c0,0-0.1,0-0.1,0c-0.2,0.1-0.3,0.1-0.4,0.2
					C63.1,4.4,63,4.8,62.9,5l0,0.2l-0.2-0.1c-0.1,0-0.2,0-0.3,0c-0.4,0-0.8,0.2-1.1,0.4c-0.3,0.2-0.7,0.3-1,0.3c-0.1,0-0.2,0-0.2,0
					c-0.1,0-0.2-0.1-0.3-0.1c-0.2-0.1-0.4-0.1-0.7-0.2h-0.1c-0.1,0-0.2,0-0.3,0c-0.1,0.9,0.7,1.5,0.7,1.5l0.1,0.1l0,0.1
					c0,0.4,0.1,0.8,0.3,1.1c0.2,0.3,0.4,0.6,0.7,0.9l0.3,0.2l-0.3,0.1c-0.2,0.1-0.4,0.3-0.5,0.4c0,0.1-0.1,0.1-0.1,0.2
					c0,0.1,0,0.2,0,0.3l0.1,0.2c0,0,0,0.1,0,0.1c0.5,0.2,1.7,0.3,2.1,0.3h0.2l0.1,0.2c0,0.2,0.3,0.4,0.5,0.5l0,0l0,0
					c0.1,0.1,0.3,0.1,0.5,0.1c0.2,0,0.4,0,0.5-0.1c0.2-0.2,0.2-0.4,0.1-0.5l0,0l0,0l0-0.1c0-0.1-0.1-0.3-0.2-0.6
					C63.5,10.3,63,10,62.5,10c-0.7,0-1.4-0.1-1.4-0.1l-0.2,0V9.7l0-0.2l0.2,0c0,0,0.2,0,0.4,0.1c-0.1-0.2-0.2-0.5-0.1-0.7
					c0-0.1,0.1-0.2,0.2-0.2h0.1l0.1,0.1c0,0.1,0.1,0.1,0,0.2v0l0,0c0,0.1,0,0.3,0.1,0.4c0.1,0.1,0.2,0.1,0.3,0.1c0,0,0,0,0,0
					c0.1,0,0.2,0,0.2-0.1c0,0,0,0,0.1,0c0,0,0,0-0.1,0C62.2,9.3,62,9.1,62,9.1L61.9,9L62,8.8c0,0,0.2-0.3,0.5-0.4c0.1,0,0.2,0,0.3,0
					c0.2,0,0.3,0,0.3,0.1l0.1,0l0,0.1c0,0.1,0,0.2,0,0.2c0,0.1-0.1,0.2-0.1,0.3c0,0,0.1,0,0.2,0c0.1,0,0.1,0,0.2,0
					c0.1,0,0.1,0,0.2-0.1c0,0,0.1-0.1,0.1-0.2c0-0.1,0-0.1,0-0.1c0-0.1-0.1-0.1-0.1-0.1l0,0l0,0c0-0.1,0-0.2,0-0.2
					c0-0.1,0.1-0.1,0.2-0.1h0l0.1,0l0,0l0,0c0.1,0.1,0.2,0.2,0.2,0.3c0,0,0,0.1,0,0.3c0,0.2-0.2,0.4-0.2,0.4
					c-0.2,0.1-0.3,0.2-0.4,0.2c-0.1,0-0.2,0-0.3,0c-0.2,0-0.3,0-0.4-0.1c0,0.1-0.1,0.1-0.1,0.2c0.5,0.1,1,0.3,1.2,0.8
					c0.1,0.2,0.2,0.4,0.2,0.6c0.1,0,0.2,0,0.2,0c0.1,0,0.2,0,0.3,0c0.4-0.2,0.7-0.2,0.8,0c0,0,0.1,0.1,0,0.3
					c0.1,0.4,0.2,0.5,0.2,0.5c0.2,0.2,0.3,0.2,0.5,0.2c0.3,0,0.5-0.2,0.5-0.2C66.8,11.7,67,11.5,67,11.2z"/>
				<path class="st2" d="M67.8,11c0,0.9,0,1.7-0.1,2.6l0,0.1c0,0.4-0.1,1.1-0.5,1.9c-0.1,0.3-0.3,0.5-0.4,0.8
					c-0.2,0.2-0.4,0.5-0.6,0.6c-0.5,0.3-1,0.4-2.1,0.4c-0.1,0-0.2,0-0.3,0c-0.6,0-1.2-0.1-1.7-0.2c-0.3-0.1-0.6-0.2-0.8-0.4
					c-0.2-0.2-0.4-0.4-0.5-0.6l0,0l0,0c-0.2-0.1-0.4-0.2-0.5-0.3c-0.3-0.1-0.6-0.2-0.8-0.2l0,0c-0.4-0.1-0.9-0.2-1.3-0.5
					c-0.5-0.3-1.1-1-1-1.9c0.1-0.6,0.6-1,0.7-1.1c0.3-0.2,0.6-0.3,0.9-0.3c0.4,0,0.7,0.1,0.7,0.1l0.3,0.1l0-0.3c0-0.3,0-0.6,0-0.7
					c0.6,0.2,1.7,0.3,2.1,0.3c0.2,0.3,0.6,0.6,0.7,0.6c0.1,0.1,0.4,0.2,0.8,0.2c0.3,0,0.5-0.1,0.7-0.2c0.3-0.2,0.4-0.5,0.4-0.7h0.1
					c0.2,0,0.3,0,0.5-0.1c0,0,0,0,0.1,0c0.1,0,0.1,0,0.2,0c0.1,0.3,0.2,0.5,0.3,0.7c0.2,0.2,0.5,0.4,0.8,0.4c0.4,0,0.8-0.3,0.8-0.3
					c0.1-0.2,0.3-0.5,0.4-0.9c0-0.1,0-0.2,0-0.4c0.3,0,0.4,0.1,0.4,0.1L67.8,11z M60.2,15.3l-0.1-0.2c-0.1-0.2-0.1-0.5-0.2-0.8
					c0-0.2-0.1-0.4-0.1-0.7l0-0.1l-0.1,0c-0.1,0-0.2-0.1-0.2-0.1v0l0,0c0,0,0-0.1,0-0.1c0-0.1,0-0.2-0.1-0.3
					c-0.1-0.3-0.4-0.5-0.5-0.6c-0.1-0.1-0.3-0.1-0.5-0.1c-0.3,0-0.5,0.1-0.5,0.1c-0.4,0.2-0.5,0.5-0.6,0.6c-0.1,0.2-0.1,0.5,0,0.9
					c0.1,0.4,0.4,0.7,0.5,0.8c0.3,0.2,0.8,0.6,1.5,0.7h0c0.2,0,0.4,0,0.7-0.1L60.2,15.3z"/>
				<path class="st5" d="M66.7,10.4C67,10.7,67,11,67,11.2c0,0.3-0.2,0.6-0.2,0.7c0,0-0.2,0.2-0.5,0.2c-0.2,0-0.3-0.1-0.5-0.2
					c0,0-0.1-0.1-0.2-0.5c0.1-0.2,0-0.3,0-0.3c-0.1-0.2-0.4-0.2-0.8,0c-0.1,0-0.2,0-0.3,0c-0.1,0-0.1,0-0.2,0c0-0.1-0.1-0.4-0.2-0.6
					c-0.2-0.4-0.7-0.7-1.2-0.8c0.1-0.1,0.1-0.1,0.1-0.2c0.1,0,0.2,0.1,0.4,0.1c0.1,0,0.2,0,0.3,0c0.1,0,0.3-0.1,0.4-0.2
					c0.1-0.1,0.2-0.2,0.2-0.4c0-0.1,0-0.2,0-0.3c0-0.1-0.1-0.2-0.2-0.3l0,0l0,0l-0.1,0h0c-0.1,0-0.1,0-0.2,0.1
					c-0.1,0.1-0.1,0.2,0,0.2l0,0l0,0c0,0,0.1,0.1,0.1,0.1c0,0,0,0,0,0.1c0,0.1-0.1,0.2-0.1,0.2c-0.1,0.1-0.1,0.1-0.2,0.1
					c-0.1,0-0.1,0-0.2,0c-0.1,0-0.1,0-0.2,0c0.1-0.1,0.1-0.2,0.1-0.3c0-0.1,0-0.1,0-0.2l0-0.1l-0.1,0c0,0-0.1-0.1-0.3-0.1
					c-0.1,0-0.2,0-0.3,0C62.1,8.6,62,8.8,62,8.8L61.9,9L62,9.1c0.1,0.1,0.2,0.2,0.4,0.3c0,0,0,0,0.1,0c0,0,0,0-0.1,0
					c-0.1,0.1-0.2,0.1-0.2,0.1c0,0,0,0,0,0c-0.1,0-0.2,0-0.3-0.1c-0.1-0.1-0.1-0.2-0.1-0.4l0,0v0c0-0.1,0-0.1,0-0.2l-0.1-0.1h-0.1
					c-0.1,0-0.2,0.1-0.2,0.2c-0.1,0.2,0,0.5,0.1,0.7c-0.2,0-0.4,0-0.4-0.1l-0.2,0l0,0.2v0.2l0.2,0c0,0,0.8,0.1,1.4,0.1
					c0.6,0,1,0.3,1.1,0.5c0.1,0.2,0.2,0.5,0.2,0.6l0,0.1l0,0l0,0c0,0.1,0.1,0.3-0.1,0.5c-0.1,0.1-0.3,0.1-0.5,0.1
					c-0.2,0-0.4-0.1-0.5-0.1l0,0l0,0c-0.2-0.1-0.5-0.3-0.5-0.5l-0.1-0.2h-0.2c-0.4,0-1.6,0-2.1-0.3c0,0,0,0,0-0.1l-0.1-0.2
					c0-0.1-0.1-0.2,0-0.3c0-0.1,0.1-0.2,0.1-0.2c0.1-0.2,0.3-0.3,0.5-0.4l0.3-0.1l-0.3-0.2c-0.3-0.2-0.5-0.5-0.7-0.9
					c-0.2-0.3-0.3-0.7-0.3-1.1l0-0.1l-0.1-0.1c0,0-0.8-0.7-0.7-1.5c0.1,0,0.2,0,0.3,0H59c0.3,0,0.5,0.1,0.7,0.2
					c0.1,0,0.2,0.1,0.3,0.1c0.1,0,0.2,0,0.2,0c0.3,0,0.6-0.2,1-0.3c0.3-0.2,0.7-0.4,1.1-0.4c0.1,0,0.2,0,0.3,0l0.2,0.1l0-0.2
					c0.1-0.2,0.2-0.6,0.6-0.9c0.1-0.1,0.3-0.2,0.4-0.2c0,0,0,0,0.1,0c0,0,0.1,0,0.1,0c0.1,0,0.1,0.1,0.1,0.1
					c0.1,0.2,0.2,0.3,0.2,0.5c0.1,0.3,0.1,0.6,0.1,1l0,0.1l0.1,0.1c0,0,0.1,0,0.2,0.2c0.1,0.1,0.2,0.4,0.1,0.8l0,0v0l0,0
					c0,0.2,0.2,0.5,0.5,0.6c0,0,0,0,0,0h-0.3l0.1,0.3c0,0,0.1,0.5-0.2,0.8l-0.3,0.2l0.3,0.1c0,0,0.9,0.3,0.7,1.1l-0.1,0.2l0.2,0
					C66.1,10,66.4,10,66.7,10.4z M65.3,10.3c0-0.1,0-0.2,0-0.3c0,0-0.3,0.1-0.3,0.3c-0.1,0.2,0,0.3,0,0.3c0,0,0.1,0,0.2-0.1
					C65.3,10.4,65.3,10.3,65.3,10.3z M63.8,7.3l0.1-0.2l-0.2-0.1l-0.2,0l-0.1,0.2c0,0.1-0.1,0.2-0.2,0.2c0,0-0.1,0-0.1,0
					c-0.1,0-0.2,0-0.2,0l-0.2-0.1l-0.1,0.2l-0.1,0.2l0.2,0.1c0,0,0.2,0.1,0.3,0.1c0.1,0,0.2,0,0.3,0C63.6,7.8,63.8,7.6,63.8,7.3z
					 M61.9,8L62,7.9l-0.2-0.1l-0.2,0l-0.1,0.2c0,0.1-0.1,0.2-0.2,0.2c0,0-0.1,0-0.1,0c-0.1,0-0.2,0-0.2,0L60.9,8l-0.1,0.2l-0.1,0.2
					l0.2,0.1c0,0,0.2,0.1,0.3,0.1c0.1,0,0.2,0,0.3-0.1C61.7,8.4,61.8,8.3,61.9,8z"/>
				<path class="st4" d="M65.3,9.9c0,0.1,0,0.2,0,0.3c0,0,0,0.2-0.1,0.3c-0.1,0.1-0.2,0.1-0.2,0.1c0,0-0.1-0.2,0-0.3
					C65,10,65.3,10,65.3,9.9z"/>
				<path class="st4" d="M63.9,7.2l-0.1,0.2c-0.1,0.2-0.2,0.4-0.4,0.5c-0.1,0-0.2,0-0.3,0c-0.2,0-0.3-0.1-0.3-0.1l-0.2-0.1l0.1-0.2
					l0.1-0.2L63,7.4c0,0,0.1,0,0.2,0c0,0,0.1,0,0.1,0c0.1,0,0.1-0.1,0.2-0.2l0.1-0.2l0.2,0L63.9,7.2z"/>
				<path class="st4" d="M62,7.9L61.9,8c-0.1,0.2-0.2,0.4-0.4,0.5c-0.1,0-0.2,0.1-0.3,0.1c-0.2,0-0.3-0.1-0.3-0.1l-0.2-0.1l0.1-0.2
					L60.9,8l0.2,0.1c0,0,0.1,0,0.2,0c0,0,0.1,0,0.1,0c0.1,0,0.1-0.1,0.2-0.2l0.1-0.2l0.2,0L62,7.9z"/>
				<path class="st4" d="M60.1,15.1l0.1,0.2L60,15.4c-0.2,0.1-0.4,0.1-0.7,0.1h0c-0.7,0-1.3-0.4-1.5-0.7c-0.1-0.1-0.4-0.4-0.5-0.8
					c-0.1-0.4,0-0.7,0-0.9c0.1-0.2,0.2-0.5,0.6-0.6c0.1,0,0.3-0.1,0.5-0.1c0.2,0,0.3,0,0.5,0.1c0.1,0.1,0.4,0.2,0.5,0.6
					c0,0.1,0,0.2,0.1,0.3c0,0,0,0.1,0,0.1l0,0v0c0,0,0,0.1,0.2,0.1l0.1,0l0,0.1c0,0.2,0,0.4,0.1,0.7C60,14.6,60,14.9,60.1,15.1z
					 M59.7,15c-0.1-0.2-0.1-0.4-0.1-0.6c0-0.2-0.1-0.4-0.1-0.6c-0.2-0.1-0.3-0.2-0.3-0.3c0-0.1,0-0.1-0.1-0.2c0-0.1,0-0.2,0-0.2
					c-0.1-0.2-0.3-0.3-0.3-0.3c-0.1,0-0.2-0.1-0.3-0.1c-0.2,0-0.3,0.1-0.4,0.1c-0.2,0.1-0.3,0.3-0.4,0.4c0,0.1-0.1,0.4,0,0.7
					c0.1,0.3,0.3,0.5,0.4,0.6c0.2,0.2,0.6,0.5,1.2,0.5C59.4,15.1,59.5,15,59.7,15z"/>
			</g>
			<g>
			</g>
		</g>
	</g>
</g>
</svg>
