<?xml version="1.0" encoding="utf-8"?>
<!-- Generator: Adobe Illustrator 24.0.3, SVG Export Plug-In . SVG Version: 6.00 Build 0)  -->
<svg version="1.1" id="Layer_1" xmlns="http://www.w3.org/2000/svg" xmlns:xlink="http://www.w3.org/1999/xlink" x="0px" y="0px"
	 viewBox="0 0 49.6 46.5" style="enable-background:new 0 0 49.6 46.5;" xml:space="preserve">
<style type="text/css">
	.st0{display:none;}
	.st1{fill:#332502;}
	.st2{fill:#EAD681;}
	.st3{fill:#FFFFFF;}
</style>
<g id="bg">
</g>
<g id="sample" class="st0">
	
		<image style="display:inline;overflow:visible;opacity:0.4;enable-background:new    ;" width="481" height="481" xlink:href="../../../../UI &amp; UX Designs/coffee Time/logo/7D333F6A47F25F0.jpg"  transform="matrix(0.9979 0 0 0.9979 -219.3127 -191.0065)">
	</image>
</g>
<g id="ratio">
</g>
<g id="cup">
</g>
<g>
	<g id="XMLID_1_">
		<g>
			<path class="st1" d="M24.8,21.5L24.8,21.5c0.1,0,0.1,0,0.2,0l0,0l0.1-0.1l0,0C25,21.4,25,21.4,24.8,21.5
				C24.8,21.5,24.8,21.5,24.8,21.5z M30.2,23.5c0,0.8,0,1.7-0.1,2.4V26c0,0.4-0.2,1.1-0.5,2c-0.1,0.3-0.3,0.6-0.4,0.8
				c-0.2,0.3-0.5,0.5-0.7,0.7c-0.6,0.4-1.1,0.4-2.2,0.5c-0.1,0-0.2,0-0.3,0c-0.6,0-1.1-0.1-1.7-0.2c-0.4-0.1-0.7-0.2-0.9-0.5
				c-0.2-0.2-0.4-0.4-0.6-0.7c-0.1-0.1-0.3-0.2-0.4-0.2c-0.3-0.1-0.5-0.1-0.6-0.2h-0.1c-0.5-0.1-0.9-0.3-1.4-0.5
				c-0.5-0.3-1.3-1.1-1.1-2.2c0.1-0.8,0.8-1.2,0.8-1.3c0.4-0.2,0.8-0.3,1.1-0.3c0.2,0,0.4,0,0.6,0.1c0-0.3,0-0.5,0-0.6
				c0-0.1,0-0.2,0.1-0.4c-0.1-0.2-0.1-0.4,0-0.5c0-0.2,0.1-0.3,0.2-0.4c0.1-0.2,0.2-0.3,0.4-0.4c-0.2-0.2-0.4-0.5-0.6-0.8
				c-0.4-0.4-0.5-0.8-0.5-1.1c-0.2-0.2-0.8-0.9-0.7-1.9v-0.1H21c0.2,0,0.4,0,0.5,0h0.1c0.4,0,0.6,0.1,0.8,0.2c0.1,0,0.2,0.1,0.3,0.1
				h0.1c0.2,0,0.5-0.1,0.8-0.3c0.4-0.2,0.8-0.4,1.2-0.4c0.1,0,0.1,0,0.2,0c0.1-0.3,0.3-0.7,0.7-0.9c0.2-0.1,0.3-0.2,0.5-0.3
				c0,0,0.1,0,0.2,0c0.1,0,0.2,0,0.2,0c0.2,0.1,0.3,0.2,0.3,0.3c0.1,0.2,0.2,0.4,0.2,0.6c0.1,0.3,0.1,0.6,0.1,0.9
				c0.2,0.1,0.6,0.5,0.4,1.2c0,0,0,0.1,0.1,0.1c0.1,0.1,0.2,0.2,0.3,0.2h0.3V20c0,0-0.1,0.3-0.3,0.5c0,0.2,0,0.5-0.2,0.8
				c0.4,0.3,0.7,0.7,0.7,1.1c0.2,0.1,0.6,0.2,0.8,0.5c0.1,0.1,0.1,0.2,0.2,0.3c0.7,0,0.8,0.2,0.9,0.3v0.1H30.2z M29.7,25.9
				c0.1-0.8,0.1-1.6,0.1-2.4v-0.1c-0.1,0-0.2-0.1-0.4-0.1c0,0.2,0,0.3,0,0.4c0,0.4-0.2,0.8-0.4,0.8c0,0-0.3,0.3-0.8,0.3
				c-0.3,0-0.5-0.1-0.8-0.4c-0.1-0.1-0.2-0.3-0.3-0.7c-0.1,0-0.1,0-0.2,0c0,0,0,0-0.1,0c-0.2,0-0.3,0.1-0.5,0.1h-0.1
				c0,0.2-0.1,0.5-0.4,0.7c-0.2,0.1-0.5,0.2-0.7,0.2c-0.3,0-0.6-0.1-0.8-0.2c-0.1-0.1-0.5-0.3-0.7-0.6c-0.4,0-1.4-0.1-2-0.3
				c0,0.2,0,0.4,0,0.7v0.3l-0.3-0.1c0,0-0.3-0.1-0.7-0.1c-0.4,0-0.7,0.1-0.8,0.3c-0.1,0.1-0.6,0.4-0.7,1c-0.1,0.8,0.5,1.5,0.9,1.8
				c0.5,0.3,0.8,0.4,1.2,0.5l0,0c0.2,0,0.5,0.1,0.8,0.2c0.2,0.1,0.4,0.2,0.5,0.3l0,0l0,0c0.1,0.2,0.3,0.5,0.5,0.6
				c0.3,0.2,0.5,0.3,0.8,0.4c0.5,0.1,1,0.2,1.6,0.2c0.1,0,0.2,0,0.3,0c1,0,1.5-0.1,2-0.4c0.2-0.2,0.4-0.4,0.6-0.6
				c0.2-0.2,0.3-0.5,0.4-0.8C29.6,27.1,29.7,26.3,29.7,25.9L29.7,25.9z M29.1,23.7c0-0.1,0-0.5-0.2-0.8c-0.4-0.4-0.7-0.4-0.8-0.4
				h-0.2l0.1-0.2c0.2-0.8-0.6-1-0.7-1L27,21.2l0.2-0.4c0.3-0.3,0.2-0.7,0.2-0.8l-0.1-0.3h0.3l0,0c-0.4-0.1-0.5-0.4-0.5-0.6l0,0l0,0
				l0,0c0.1-0.4,0-0.6-0.1-0.8c-0.1-0.1-0.2-0.2-0.2-0.2l-0.1-0.1v-0.1c0-0.4,0-0.7-0.1-0.9c-0.1-0.2-0.1-0.3-0.2-0.5
				c0,0,0-0.1-0.1-0.1c0,0,0,0-0.1,0h-0.1c-0.2,0.1-0.3,0.1-0.4,0.2c-0.4,0.5-0.5,0.8-0.6,1V18L25,17.9c-0.1,0-0.2,0-0.3,0
				c-0.4,0-0.8,0.2-1,0.4c-0.3,0.2-0.7,0.3-0.9,0.3c-0.1,0-0.2,0-0.2,0c-0.1,0-0.2-0.1-0.3-0.1c-0.2-0.1-0.4-0.1-0.7-0.2h-0.1
				c-0.1,0-0.2,0-0.3,0c-0.1,0.8,0.7,1.4,0.7,1.4l0.1,0.1v0.1c0,0.4,0.1,0.8,0.3,1c0.2,0.3,0.4,0.6,0.7,0.8l0.3,0.2L23,22.1
				c-0.2,0.1-0.4,0.3-0.5,0.4c0,0.1-0.1,0.1-0.1,0.2s0,0.2,0,0.3l0.1,0.2v0.1c0.5,0.2,1.6,0.3,2,0.3h0.2l0.1,0.2
				c0,0.2,0.3,0.4,0.5,0.5l0,0l0,0c0.1,0.1,0.3,0.1,0.5,0.1s0.4,0,0.5-0.1c0.2-0.2,0.2-0.4,0.1-0.5l0,0l0,0v-0.1
				c0-0.1-0.1-0.3-0.2-0.6c-0.3-0.2-0.8-0.5-1.2-0.5c-0.7,0-1.3-0.1-1.3-0.1h-0.2v-0.2v-0.2h0.2c0,0,0.2,0,0.4,0.1
				c-0.1-0.2-0.2-0.5-0.1-0.7c0-0.1,0.1-0.2,0.2-0.2h0.1l0.1,0.1c0,0.1,0.1,0.1,0,0.2l0,0l0,0c0,0.1,0,0.3,0.1,0.4
				c0.1,0.1,0.2,0.1,0.3,0.1l0,0c0.1,0,0.2,0,0.2-0.1c0,0,0,0,0.1,0c0,0,0,0-0.1,0c-0.2-0.1-0.4-0.3-0.4-0.3l-0.1-0.1l0.1-0.2
				c0,0,0.2-0.3,0.5-0.4c0.1,0,0.2,0,0.3,0c0.2,0,0.3,0,0.3,0.1h0.1v0.1c0,0.1,0,0.2,0,0.2c0,0.1-0.1,0.2-0.1,0.3c0,0,0.1,0,0.2,0
				c0.1,0,0.1,0,0.2,0c0.1,0,0.1,0,0.2-0.1c0,0,0.1-0.1,0.1-0.2s0-0.1,0-0.1c0-0.1-0.1-0.1-0.1-0.1l0,0l0,0c0-0.1,0-0.2,0-0.2
				c0-0.1,0.1-0.1,0.2-0.1l0,0h0.1l0,0l0,0c0.1,0.1,0.2,0.2,0.2,0.3c0,0,0,0.1,0,0.3c0,0.2-0.2,0.4-0.2,0.4
				c-0.2,0.1-0.3,0.2-0.4,0.2c-0.1,0-0.2,0-0.3,0c-0.2,0-0.3,0-0.4-0.1c0,0.1-0.1,0.1-0.1,0.2c0.5,0.1,0.9,0.3,1.1,0.8
				c0.1,0.2,0.2,0.4,0.2,0.6c0.1,0,0.2,0,0.2,0c0.1,0,0.2,0,0.3,0c0.4-0.2,0.7-0.2,0.8,0c0,0,0.1,0.1,0,0.3c0.1,0.4,0.2,0.5,0.2,0.5
				c0.2,0.2,0.3,0.2,0.5,0.2c0.3,0,0.5-0.2,0.5-0.2C28.9,24.1,29.1,24,29.1,23.7z"/>
			<path class="st2" d="M29.8,23.5c0,0.8,0,1.6-0.1,2.4V26c0,0.4-0.1,1-0.5,1.8c-0.1,0.3-0.3,0.5-0.4,0.8c-0.2,0.2-0.4,0.5-0.6,0.6
				c-0.5,0.3-0.9,0.4-2,0.4c-0.1,0-0.2,0-0.3,0c-0.6,0-1.1-0.1-1.6-0.2c-0.3-0.1-0.6-0.2-0.8-0.4c-0.2-0.2-0.4-0.4-0.5-0.6l0,0l0,0
				c-0.2-0.1-0.4-0.2-0.5-0.3c-0.3-0.1-0.6-0.2-0.8-0.2l0,0c-0.4-0.1-0.8-0.2-1.2-0.5c-0.5-0.3-1-0.9-0.9-1.8c0.1-0.6,0.6-0.9,0.7-1
				c0.3-0.2,0.6-0.3,0.8-0.3c0.4,0,0.7,0.1,0.7,0.1l0.3,0.1v-0.3c0-0.3,0-0.6,0-0.7c0.6,0.2,1.6,0.3,2,0.3c0.2,0.3,0.6,0.6,0.7,0.6
				c0.1,0.1,0.4,0.2,0.8,0.2c0.3,0,0.5-0.1,0.7-0.2c0.3-0.2,0.4-0.5,0.4-0.7h0.1c0.2,0,0.3,0,0.5-0.1c0,0,0,0,0.1,0
				c0.1,0,0.1,0,0.2,0c0.1,0.3,0.2,0.5,0.3,0.7c0.2,0.2,0.5,0.4,0.8,0.4c0.4,0,0.8-0.3,0.8-0.3C29.5,24.2,29.6,24,29.8,23.5
				c-0.1,0-0.1-0.1-0.1-0.3c0.3,0,0.4,0.1,0.4,0.1L29.8,23.5z M22.7,27.5l-0.1-0.2c-0.1-0.2-0.1-0.5-0.2-0.8c0-0.2-0.1-0.4-0.1-0.7
				v-0.1h-0.1c-0.1,0-0.2-0.1-0.2-0.1l0,0l0,0v-0.1c0-0.1,0-0.2-0.1-0.3c-0.1-0.3-0.4-0.5-0.5-0.6c-0.1-0.1-0.3-0.1-0.5-0.1
				c-0.3,0-0.5,0.1-0.5,0.1c-0.4,0.2-0.5,0.5-0.6,0.6c-0.1,0.2-0.1,0.5,0,0.8c0.1,0.4,0.4,0.7,0.5,0.8c0.3,0.2,0.8,0.6,1.4,0.7l0,0
				c0.2,0,0.4,0,0.7-0.1L22.7,27.5z"/>
			<path class="st3" d="M28.8,22.9c0.3,0.3,0.3,0.6,0.3,0.8c0,0.3-0.2,0.6-0.2,0.7c0,0-0.2,0.2-0.5,0.2c-0.2,0-0.3-0.1-0.5-0.2
				c0,0-0.1-0.1-0.2-0.5c0.1-0.2,0-0.3,0-0.3c-0.1-0.2-0.4-0.2-0.8,0c-0.1,0-0.2,0-0.3,0c-0.1,0-0.1,0-0.2,0c0-0.1-0.1-0.4-0.2-0.6
				c-0.2-0.4-0.7-0.7-1.1-0.8c0.1-0.1,0.1-0.1,0.1-0.2c0.1,0,0.2,0.1,0.4,0.1c0.1,0,0.2,0,0.3,0c0.1,0,0.3-0.1,0.4-0.2
				c0.1-0.1,0.2-0.2,0.2-0.4c0-0.1,0-0.2,0-0.3c0-0.1-0.1-0.2-0.2-0.3l0,0l0,0h-0.1l0,0c-0.1,0-0.1,0-0.2,0.1
				c-0.1,0.1-0.1,0.2,0,0.2l0,0l0,0l0.1,0.1c0,0,0,0,0,0.1c0,0.1-0.1,0.2-0.1,0.2c-0.1,0.1-0.1,0.1-0.2,0.1c-0.1,0-0.1,0-0.2,0
				c-0.1,0-0.1,0-0.2,0c0.1-0.1,0.1-0.2,0.1-0.3c0-0.1,0-0.1,0-0.2v-0.1h-0.1c0,0-0.1-0.1-0.3-0.1c-0.1,0-0.2,0-0.3,0
				c-0.5,0.1-0.6,0.3-0.6,0.3l-0.1,0.2l0.1,0.1c0.1,0.1,0.2,0.2,0.4,0.3c0,0,0,0,0.1,0c0,0,0,0-0.1,0c-0.1,0.1-0.2,0.1-0.2,0.1l0,0
				c-0.1,0-0.2,0-0.3-0.1c-0.1-0.1-0.1-0.2-0.1-0.4l0,0l0,0c0-0.1,0-0.1,0-0.2l-0.1-0.1H24c-0.1,0-0.2,0.1-0.2,0.2
				c-0.1,0.2,0,0.5,0.1,0.7c-0.2,0-0.4,0-0.4-0.1h-0.2v0.2v0.2h0.2c0,0,0.8,0.1,1.3,0.1c0.6,0,0.9,0.3,1,0.5
				c0.1,0.2,0.2,0.5,0.2,0.6v0.1l0,0l0,0c0,0.1,0.1,0.3-0.1,0.5c-0.1,0.1-0.3,0.1-0.5,0.1s-0.4-0.1-0.5-0.1l0,0l0,0
				c-0.2-0.1-0.5-0.3-0.5-0.5l-0.1-0.2h-0.2c-0.4,0-1.5,0-2-0.3c0,0,0,0,0-0.1l-0.1-0.2c0-0.1-0.1-0.2,0-0.3c0-0.1,0.1-0.2,0.1-0.2
				c0.1-0.2,0.3-0.3,0.5-0.4l0.3-0.1l-0.3-0.2c-0.3-0.2-0.5-0.5-0.7-0.8c-0.2-0.3-0.3-0.7-0.3-1v-0.1l-0.1-0.1c0,0-0.8-0.7-0.7-1.4
				c0.1,0,0.2,0,0.3,0h0.2c0.3,0,0.5,0.1,0.7,0.2c0.1,0,0.2,0.1,0.3,0.1c0.1,0,0.2,0,0.2,0c0.3,0,0.6-0.2,0.9-0.3
				c0.3-0.2,0.7-0.4,1-0.4c0.1,0,0.2,0,0.3,0l0.2,0.1v-0.2c0.1-0.2,0.2-0.6,0.6-0.8c0.1-0.1,0.3-0.2,0.4-0.2c0,0,0,0,0.1,0h0.1
				c0.1,0,0.1,0.1,0.1,0.1c0.1,0.2,0.2,0.3,0.2,0.5c0.1,0.3,0.1,0.6,0.1,0.9v0.1l0.1,0.1c0,0,0.1,0,0.2,0.2c0.1,0.1,0.2,0.4,0.1,0.8
				l0,0l0,0l0,0c0,0.2,0.2,0.5,0.5,0.6l0,0h-0.3l0.1,0.3c0,0,0.1,0.5-0.2,0.8l-0.3,0.2l0.3,0.1c0,0,0.8,0.3,0.7,1l-0.1,0.2h0.2
				C28.2,22.5,28.5,22.5,28.8,22.9z M27.5,22.8c0-0.1,0-0.2,0-0.3c0,0-0.3,0.1-0.3,0.3c-0.1,0.2,0,0.3,0,0.3s0.1,0,0.2-0.1
				C27.5,22.9,27.5,22.8,27.5,22.8z M26.1,20l0.1-0.2L26,19.7h-0.2l-0.1,0.2c0,0.1-0.1,0.2-0.2,0.2h-0.1c-0.1,0-0.2,0-0.2,0L25,20
				l-0.1,0.2l-0.1,0.2l0.2,0.1c0,0,0.2,0.1,0.3,0.1c0.1,0,0.2,0,0.3,0C25.9,20.5,26.1,20.3,26.1,20z M24.3,20.7L24.3,20.7l-0.1-0.2
				H24l-0.1,0.2c0,0.1-0.1,0.2-0.2,0.2h-0.1c-0.1,0-0.2,0-0.2,0l-0.1-0.2l-0.1,0.2L23.2,21l0.2,0.1c0,0,0.2,0.1,0.3,0.1
				c0.1,0,0.2,0,0.3-0.1C24.1,21,24.2,20.9,24.3,20.7z"/>
			<path class="st1" d="M27.5,22.5c0,0.1,0,0.2,0,0.3c0,0,0,0.2-0.1,0.3c-0.1,0.1-0.2,0.1-0.2,0.1s-0.1-0.2,0-0.3
				C27.2,22.5,27.5,22.5,27.5,22.5z"/>
			<path class="st1" d="M26.2,19.9l-0.1,0.2c-0.1,0.2-0.2,0.4-0.4,0.5c-0.1,0-0.2,0-0.3,0c-0.2,0-0.3-0.1-0.3-0.1l-0.2-0.1l0.1-0.2
				l0.1-0.2l0.2,0.1c0,0,0.1,0,0.2,0h0.1c0.1,0,0.1-0.1,0.2-0.2l0.1-0.2h0.2L26.2,19.9z"/>
			<path class="st1" d="M24.4,20.6L24.4,20.6c-0.2,0.3-0.3,0.5-0.5,0.6c-0.1,0-0.2,0.1-0.3,0.1c-0.2,0-0.3-0.1-0.3-0.1L23.2,21
				l0.1-0.2l0.1-0.2l0.2,0.1c0,0,0.1,0,0.2,0h0.1c0.1,0,0.1-0.1,0.2-0.2l0.1-0.2h0.2L24.4,20.6z"/>
			<path class="st1" d="M22.6,27.3l0.1,0.2l-0.2,0.1c-0.2,0.1-0.4,0.1-0.7,0.1l0,0c-0.7,0-1.2-0.4-1.4-0.7c-0.1-0.1-0.4-0.4-0.5-0.8
				c-0.1-0.4,0-0.7,0-0.8c0.1-0.2,0.2-0.5,0.6-0.6c0.1,0,0.3-0.1,0.5-0.1c0.2,0,0.3,0,0.5,0.1c0.1,0.1,0.4,0.2,0.5,0.6
				c0,0.1,0,0.2,0.1,0.3v0.1l0,0l0,0c0,0,0,0.1,0.2,0.1h0.1V26c0,0.2,0,0.4,0.1,0.7C22.5,26.9,22.5,27.2,22.6,27.3z M22.2,27.2
				c-0.1-0.2-0.1-0.4-0.1-0.6c0-0.2-0.1-0.4-0.1-0.6c-0.2-0.1-0.3-0.2-0.3-0.3c0-0.1,0-0.1-0.1-0.2c0-0.1,0-0.2,0-0.2
				c-0.1-0.2-0.3-0.3-0.3-0.3c-0.1,0-0.2-0.1-0.3-0.1c-0.2,0-0.3,0.1-0.4,0.1c-0.2,0.1-0.3,0.3-0.4,0.4c0,0.1-0.1,0.4,0,0.7
				c0.1,0.3,0.3,0.5,0.4,0.6c0.2,0.2,0.6,0.5,1.1,0.5C21.9,27.3,22,27.2,22.2,27.2z"/>
		</g>
	</g>
</g>
</svg>
