<svg xmlns="http://www.w3.org/2000/svg" width="24.7" height="25.6" viewBox="0 0 24.7 25.6">
  <path id="cart" d="M4.1,27.8a1.538,1.538,0,0,1-1.5-1.5L3.7,9A1.735,1.735,0,0,1,5.4,7.4H10V7.2a5.062,5.062,0,0,1,4.9-5,4.93,4.93,0,0,1,4.9,5v.2h4.6A1.735,1.735,0,0,1,26.1,9l1.2,17.2a2.1,2.1,0,0,1-.4,1.1,1.606,1.606,0,0,1-1.1.5H4.1ZM5.4,8.4a.645.645,0,0,0-.6.6L3.7,26.3a.43.43,0,0,0,.4.4H25.9a.458.458,0,0,0,.4-.5L25.2,9.1a.645.645,0,0,0-.6-.6H5.4ZM15,3.3a3.885,3.885,0,0,0-3.8,3.9v.2h7.7V7.2A3.97,3.97,0,0,0,15,3.3Z" transform="translate(-2.6 -2.2)" fill="#f9f5c0"/>
</svg>
