<svg xmlns="http://www.w3.org/2000/svg" width="75" height="75" viewBox="0 0 75 75">
  <g id="chat" transform="translate(-2.1 -2.1)">
    <path id="Path_18" data-name="Path 18" d="M39.6,2.1A37.5,37.5,0,1,0,77.1,39.6,37.591,37.591,0,0,0,39.6,2.1Zm0,72.384A34.884,34.884,0,1,1,74.484,39.6,34.986,34.986,0,0,1,39.6,74.484Z" fill="#f4d37f"/>
    <path id="Path_19" data-name="Path 19" d="M37.337,11H15.686A6.2,6.2,0,0,0,9.5,17.186V30.177a6.2,6.2,0,0,0,6.186,6.186H19.4A4.789,4.789,0,0,1,16,38.837a1.7,1.7,0,0,0-1.237,1.856c0,.619.928,1.237,1.547,1.237h.309C24.965,41,29.6,39.147,31.77,36.054h5.258a6.2,6.2,0,0,0,6.186-6.186V17.186A5.764,5.764,0,0,0,37.337,11Zm2.784,19.177a2.772,2.772,0,0,1-2.784,2.784H30.223l-.309.619a4.27,4.27,0,0,1-.928,1.237c-1.237,1.237-3.4,2.165-6.5,3.093.309-.619.619-1.547.928-2.165a3.923,3.923,0,0,0,.309-1.856V32.96H15.686A2.772,2.772,0,0,1,12.9,30.177V17.186A2.772,2.772,0,0,1,15.686,14.4H37.337a2.772,2.772,0,0,1,2.784,2.784V30.177Z" transform="translate(13.103 15.924)" fill="#f4d37f"/>
    <rect id="Rectangle_12" data-name="Rectangle 12" width="16.393" height="2.474" transform="translate(31.546 36.332)" fill="#f4d37f"/>
    <rect id="Rectangle_13" data-name="Rectangle 13" width="16.393" height="2.474" transform="translate(31.546 40.974)" fill="#f4d37f"/>
  </g>
</svg>
