<svg xmlns="http://www.w3.org/2000/svg" width="75" height="75" viewBox="0 0 75 75">
  <g id="email" transform="translate(-2.1 -2.1)">
    <path id="Path_22" data-name="Path 22" d="M39.6,2.1A37.5,37.5,0,1,0,77.1,39.6,37.591,37.591,0,0,0,39.6,2.1Zm0,72.384A34.884,34.884,0,1,1,74.484,39.6,34.986,34.986,0,0,1,39.6,74.484Z" fill="#f4d37f"/>
    <path id="Path_23" data-name="Path 23" d="M39.795,11.1H13.56A4.134,4.134,0,0,0,9.5,15.16V31.4a4.134,4.134,0,0,0,4.06,4.06H39.795a4.134,4.134,0,0,0,4.06-4.06V15.16A4.134,4.134,0,0,0,39.795,11.1Zm-1.562,2.811L26.365,22.656,13.872,13.911ZM41.044,31.4a1.343,1.343,0,0,1-1.249,1.249H13.56A1.343,1.343,0,0,1,12.311,31.4V16.409L26.365,26.4,41.356,15.472V31.4Z" transform="translate(12.923 16.32)" fill="#f4d37f"/>
  </g>
</svg>
