<svg xmlns="http://www.w3.org/2000/svg" width="75" height="75" viewBox="0 0 75 75">
  <g id="faq" transform="translate(-2.1 -2.1)">
    <path id="Path_16" data-name="Path 16" d="M39.6,2.1A37.5,37.5,0,1,0,77.1,39.6,37.591,37.591,0,0,0,39.6,2.1Zm0,72.384A34.884,34.884,0,1,1,74.484,39.6,34.986,34.986,0,0,1,39.6,74.484Z" transform="translate(0 0)" fill="#f4d37f"/>
    <rect id="Rectangle_10" data-name="Rectangle 10" width="4.283" height="4.283" transform="translate(36.874 52.069)" fill="#f4d37f"/>
    <path id="Path_17" data-name="Path 17" d="M20.534,9.1a12.5,12.5,0,0,0-4.551.8,7.87,7.87,0,0,0-3.212,2.677A6.452,6.452,0,0,0,11.7,16.6h4.015a4.433,4.433,0,0,1,1.338-3.212,4.267,4.267,0,0,1,3.212-1.071,4.624,4.624,0,0,1,3.48,1.338,4.542,4.542,0,0,1,1.071,3.48,5.219,5.219,0,0,1-.268,2.142,5.381,5.381,0,0,1-1.071,2.142,10.223,10.223,0,0,1-2.409,2.409,8.8,8.8,0,0,0-1.606,1.606c-.535.535-.8,1.071-1.071,1.338-.268.535-.268,1.071-.535,1.606v2.677H22.14V28.91a2.045,2.045,0,0,1,.535-1.338,4.7,4.7,0,0,1,1.071-1.338c1.338-1.338,2.142-2.409,2.945-3.212a18.006,18.006,0,0,0,1.874-2.945,6.791,6.791,0,0,0,.535-3.212,7.111,7.111,0,0,0-2.409-5.889A9.911,9.911,0,0,0,20.534,9.1Z" transform="translate(19.051 14.099)" fill="#f4d37f"/>
  </g>
</svg>
