<svg xmlns="http://www.w3.org/2000/svg" width="75" height="75" viewBox="0 0 75 75">
  <g id="phone" transform="translate(-2.1 -2.1)">
    <path id="Path_24" data-name="Path 24" d="M39.6,2.1A37.5,37.5,0,1,0,77.1,39.6,37.591,37.591,0,0,0,39.6,2.1Zm0,72.384A34.884,34.884,0,1,1,74.484,39.6,34.986,34.986,0,0,1,39.6,74.484Z" fill="#f4d37f"/>
    <path id="Path_25" data-name="Path 25" d="M40.179,30.23a2.231,2.231,0,0,0-2.209-.266,12.865,12.865,0,0,1-8.52,1.594,10.746,10.746,0,0,1-5.365-3.188,7.312,7.312,0,0,1-2.84-4.251c-.316-3.188,2.84-5.845,3.471-6.111.316-.266.631-.531.631-.8a1.406,1.406,0,0,0-.316-1.063L17.143,8.975a2.231,2.231,0,0,0-2.209-.266,13.121,13.121,0,0,0-5.68,6.377c-1.893,4.783,0,8.768.947,11.425,2.525,5.845,7.889,10.628,15.147,13.551,2.525,1.063,6,2.657,10.414,2.657a6.3,6.3,0,0,0,2.209-.266,20.435,20.435,0,0,0,9.467-3.72,1.15,1.15,0,0,0,0-1.86Zm-2.84,9.831a18.994,18.994,0,0,1-10.729-2.126c-6.627-2.923-11.36-7.174-13.569-12.222-1.262-2.391-2.525-5.845-.947-9.565a13.762,13.762,0,0,1,3.787-4.783l5.68,5.314c-1.578,1.328-3.787,4.251-3.471,7.44.316,2.657,2.209,4.517,3.471,5.845A15.873,15.873,0,0,0,28.5,33.95a15.269,15.269,0,0,0,9.782-1.328L43.65,37.67A11.689,11.689,0,0,1,37.339,40.061Z" transform="translate(10.612 13.87)" fill="#f4d37f"/>
    <path id="Path_26" data-name="Path 26" d="M20.68,21.5l3.156-.316c-.631-6.942-5.68-9.467-8.52-9.782L15,14.556C15.316,14.556,20.365,15.187,20.68,21.5Z" transform="translate(24.209 17.407)" fill="#f4d37f"/>
    <path id="Path_27" data-name="Path 27" d="M25.682,24.647l3.156-.316A15.75,15.75,0,0,0,16.216,9.5L15.9,12.656C16.216,12.656,25.051,14.233,25.682,24.647Z" transform="translate(25.668 13.691)" fill="#f4d37f"/>
  </g>
</svg>
